<svg id="Layer_1" data-name="Layer 1" xmlns="http://www.w3.org/2000/svg" viewBox="0 0 334 113"><defs><style>.cls-1{fill:none;stroke:#fff;stroke-miterlimit:10;stroke-width:1.71px;}.cls-2{fill:#fff;}</style></defs><title>appstore2</title><path class="cls-1" d="M321.68,92.82a8.75,8.75,0,0,1-8.85,8.76H22.1a8.48,8.48,0,0,1-8.64-8.65V22.16a8.47,8.47,0,0,1,8.64-8.63H312.83a8.61,8.61,0,0,1,8.81,8.63V92.93Z"/><path class="cls-2" d="M81,57.05c-.07-7.46,6.12-11.1,6.4-11.27a13.76,13.76,0,0,0-10.84-5.86c-4.55-.48-9,2.73-11.29,2.73s-5.95-2.68-9.8-2.6a14.42,14.42,0,0,0-12.14,7.41C38,56.55,41.94,69.9,47,77.25c2.52,3.6,5.46,7.62,9.31,7.48s5.17-2.4,9.71-2.4,5.83,2.4,9.75,2.31,6.59-3.62,9-7.25A29.85,29.85,0,0,0,88.88,69,13,13,0,0,1,81,57.05"/><path class="cls-2" d="M73.54,35.09a13.21,13.21,0,0,0,3-9.47,13.43,13.43,0,0,0-8.7,4.5c-1.87,2.18-3.54,5.76-3.11,9.13,3.3.24,6.67-1.67,8.79-4.16"/><path class="cls-2" d="M135.44,84.21h-5.26l-2.88-9.06h-10l-2.74,9.06h-5.13l9.93-30.84h6.13Zm-9-12.86-2.6-8q-.42-1.23-1.56-5.81h-.09q-.47,2-1.47,5.81l-2.56,8Z"/><path class="cls-2" d="M161,72.82q0,5.67-3.06,9a9,9,0,0,1-6.82,2.92q-4.4,0-6.31-3.15h-.09V93.27h-4.94v-24q0-3.56-.19-7.32h4.35l.27,3.53h.1a8.78,8.78,0,0,1,14.06-.87A12.23,12.23,0,0,1,161,72.82m-5,.18a9.18,9.18,0,0,0-1.46-5.35,5.06,5.06,0,0,0-4.3-2.2,5.17,5.17,0,0,0-3.32,1.21,5.63,5.63,0,0,0-1.94,3.19,6.09,6.09,0,0,0-.23,1.5v3.71a5.91,5.91,0,0,0,1.48,4.09A4.93,4.93,0,0,0,150,80.82a5,5,0,0,0,4.34-2.15A9.43,9.43,0,0,0,155.94,73"/><path class="cls-2" d="M186.55,72.82q0,5.67-3.07,9a9,9,0,0,1-6.82,2.92c-2.92,0-5-1-6.31-3.15h-.09V93.27h-4.94v-24q0-3.56-.18-7.32h4.34l.28,3.53h.09a8.2,8.2,0,0,1,7.5-4,8.29,8.29,0,0,1,6.57,3.11,12.28,12.28,0,0,1,2.63,8.19m-5,.18a9.11,9.11,0,0,0-1.47-5.35,5,5,0,0,0-4.3-2.2,5.17,5.17,0,0,0-3.32,1.21,5.68,5.68,0,0,0-1.94,3.19,6.61,6.61,0,0,0-.23,1.5v3.71a5.87,5.87,0,0,0,1.49,4.09,4.9,4.9,0,0,0,3.87,1.67A5,5,0,0,0,180,78.67,9.5,9.5,0,0,0,181.52,73"/><path class="cls-2" d="M215.14,75.56A8.22,8.22,0,0,1,212.4,82c-2,1.8-4.8,2.7-8.4,2.7a14.72,14.72,0,0,1-8-1.92l1.14-4.12a13.59,13.59,0,0,0,7.15,2,6.75,6.75,0,0,0,4.35-1.25A4.14,4.14,0,0,0,210.2,76a4.31,4.31,0,0,0-1.28-3.16,11.89,11.89,0,0,0-4.26-2.39q-8.1-3-8.09-8.84a7.81,7.81,0,0,1,2.83-6.23A11.21,11.21,0,0,1,207,52.91a15,15,0,0,1,7,1.47l-1.23,4A12.13,12.13,0,0,0,206.81,57a6,6,0,0,0-4.07,1.28,3.69,3.69,0,0,0-1.23,2.79,3.76,3.76,0,0,0,1.42,3,16.08,16.08,0,0,0,4.48,2.38,15.36,15.36,0,0,1,5.86,3.75,7.86,7.86,0,0,1,1.87,5.35"/><path class="cls-2" d="M231.47,65.68H226v10.8q0,4.11,2.89,4.11a9,9,0,0,0,2.19-.22l.13,3.75a11.24,11.24,0,0,1-3.84.55,5.93,5.93,0,0,1-4.57-1.78c-1.1-1.19-1.65-3.2-1.65-6V65.68h-3.25V62h3.25V57.9L226,56.44V62h5.44Z"/><path class="cls-2" d="M256,72.91a12.21,12.21,0,0,1-2.92,8.42A10.46,10.46,0,0,1,245,84.71a9.94,9.94,0,0,1-7.8-3.25,11.83,11.83,0,0,1-2.9-8.18,12.09,12.09,0,0,1,3-8.47,10.37,10.37,0,0,1,8.08-3.29,10.15,10.15,0,0,1,7.87,3.25A11.7,11.7,0,0,1,256,72.91m-5.12.16a10,10,0,0,0-1.33-5.28,4.87,4.87,0,0,0-4.43-2.66,5,5,0,0,0-4.53,2.66,10.19,10.19,0,0,0-1.33,5.37,10,10,0,0,0,1.33,5.28,5,5,0,0,0,8.92,0,10.05,10.05,0,0,0,1.37-5.32"/><path class="cls-2" d="M272.1,66.32a8.51,8.51,0,0,0-1.55-.14,4.67,4.67,0,0,0-4,2,7.44,7.44,0,0,0-1.24,4.39V84.21h-4.93l0-15.23c0-2.57-.06-4.9-.18-7h4.3l.18,4.26h.13a7.57,7.57,0,0,1,2.48-3.52,6,6,0,0,1,3.57-1.19,7.63,7.63,0,0,1,1.23.09Z"/><path class="cls-2" d="M294.2,72a11.78,11.78,0,0,1-.18,2.24H279.2a6.45,6.45,0,0,0,2.14,5,7.4,7.4,0,0,0,4.86,1.55,16.45,16.45,0,0,0,6-1.05l.77,3.43a18.68,18.68,0,0,1-7.46,1.37,10.79,10.79,0,0,1-8.12-3,11.26,11.26,0,0,1-2.95-8.17A12.76,12.76,0,0,1,277.18,65,9.46,9.46,0,0,1,285,61.47,8.3,8.3,0,0,1,292.24,65a12.06,12.06,0,0,1,2,7m-4.72-1.28a6.67,6.67,0,0,0-1-3.8,4.34,4.34,0,0,0-3.94-2.06,4.69,4.69,0,0,0-3.93,2,7.2,7.2,0,0,0-1.46,3.84Z"/><path class="cls-2" d="M113.31,27.71h4.32c4.31,0,7.55,1.82,7.55,7,0,5.3-3.3,7.13-7.55,7.13h-4.32Zm4.53,11.57c3.07,0,4.23-1.37,4.23-4.57,0-3-1.18-4.42-4.26-4.42H116.4v9Z"/><path class="cls-2" d="M127.29,27.71h3.08V41.8h-3.08Z"/><path class="cls-2" d="M132.39,38.6l2.34-1.39a4.19,4.19,0,0,0,3.81,2.4c1.43,0,2.45-.54,2.45-1.62s-1-1.53-2.85-2c-2.52-.7-5.14-1.35-5.14-4.3,0-2.63,2.05-4.21,5.08-4.21a6.33,6.33,0,0,1,5.6,2.89L141.53,32a4.2,4.2,0,0,0-3.47-2c-1.31,0-2,.57-2,1.41,0,1.12,1,1.52,2.9,2,2.47.66,5.1,1.45,5.1,4.36,0,2.26-1.71,4.28-5.63,4.28A6.29,6.29,0,0,1,132.39,38.6Z"/><path class="cls-2" d="M146.06,27.71h5.12c3,0,5.75.79,5.75,4.51s-3,4.57-5.79,4.57h-2v5h-3.08Zm5.19,6.68c1.93,0,2.65-.74,2.65-2.1s-.7-2.05-2.65-2.05h-2.11v4.15Z"/><path class="cls-2" d="M158,34.75c0-4.95,3.24-7.31,6.65-7.31s6.62,2.36,6.62,7.31-3.23,7.31-6.62,7.31S158,39.7,158,34.75Zm10.19,0c0-2.95-1.37-4.74-3.54-4.74s-3.55,1.79-3.55,4.74,1.36,4.82,3.55,4.82S168.18,37.7,168.18,34.75Z"/><path class="cls-2" d="M173.24,27.71h3.1l5.91,9h0v-9h2.85V41.8h-2.85l-6.16-9.07h0V41.8h-2.86Z"/><path class="cls-2" d="M187.92,27.71H191V41.8h-3.08Z"/><path class="cls-2" d="M193.78,27.71h5.64c2.59,0,5,.62,5,3.48a3.09,3.09,0,0,1-2.68,3.24v0c1.71.31,3.07,1.21,3.07,3.45,0,2.84-2.5,3.89-5.13,3.89h-5.92Zm5.33,5.8c1.62,0,2.36-.61,2.36-1.69s-.66-1.72-2.32-1.72h-2.32v3.41Zm.21,5.93c1.72,0,2.48-.69,2.48-1.89s-.9-1.85-2.61-1.85h-2.36v3.74Z"/><path class="cls-2" d="M207.09,27.71h3.1V39.28h6.21V41.8h-9.31Z"/><path class="cls-2" d="M218,27.71h9.59v2.58h-6.49v3h4.7v2.46h-4.7v3.5h6.84V41.8H218Z"/><path class="cls-2" d="M234.61,27.71h9.6v2.58h-6.49v3h4.7v2.46h-4.7v3.5h6.83V41.8h-9.94Z"/><path class="cls-2" d="M246.4,27.71h3.1l5.91,9h0v-9h2.86V41.8h-2.86l-6.15-9.07h0V41.8H246.4Z"/></svg>