<svg id="Layer_1" data-name="Layer 1" xmlns="http://www.w3.org/2000/svg" viewBox="0 0 324 107"><defs><style>.cls-1{fill:none;stroke:#424242;stroke-miterlimit:10;stroke-width:1.71px;}.cls-2{fill:#616161;}</style></defs><title>appstore1</title><path class="cls-1" d="M316,87.81a8.75,8.75,0,0,1-8.85,8.77H16.42a8.48,8.48,0,0,1-8.64-8.65V17.16a8.47,8.47,0,0,1,8.64-8.64H307.15A8.61,8.61,0,0,1,316,17.16V87.93Z"/><path class="cls-2" d="M75.27,52.05c-.07-7.47,6.12-11.1,6.4-11.27a13.73,13.73,0,0,0-10.84-5.86c-4.55-.48-9,2.73-11.29,2.73s-5.95-2.68-9.8-2.6a14.43,14.43,0,0,0-12.14,7.4c-5.25,9.09-1.34,22.45,3.69,29.8,2.52,3.6,5.46,7.62,9.31,7.47s5.17-2.4,9.71-2.4,5.83,2.4,9.75,2.31,6.58-3.61,9-7.24A30,30,0,0,0,83.2,64a13,13,0,0,1-7.93-11.94"/><path class="cls-2" d="M67.86,30.09a13.23,13.23,0,0,0,3-9.48,13.45,13.45,0,0,0-8.7,4.51c-1.87,2.18-3.54,5.76-3.11,9.12,3.3.25,6.67-1.66,8.79-4.15"/><path class="cls-2" d="M129.76,79.21H124.5l-2.88-9.06h-10l-2.74,9.06h-5.13l9.93-30.84h6.13Zm-9-12.86-2.6-8.06q-.42-1.23-1.56-5.8h-.09c-.31,1.31-.8,3.25-1.47,5.8l-2.56,8.06Z"/><path class="cls-2" d="M155.29,67.81q0,5.68-3.06,9a9,9,0,0,1-6.82,2.93c-2.93,0-5-1.06-6.31-3.16H139V88.26h-4.95v-24c0-2.38-.06-4.81-.18-7.32h4.35l.27,3.53h.1a8.77,8.77,0,0,1,14.06-.87,12.2,12.2,0,0,1,2.63,8.18m-5,.19a9.24,9.24,0,0,0-1.46-5.36,5.25,5.25,0,0,0-7.62-1,5.6,5.6,0,0,0-1.94,3.18,6.09,6.09,0,0,0-.23,1.51v3.71a5.93,5.93,0,0,0,1.48,4.09,4.93,4.93,0,0,0,3.87,1.67,5,5,0,0,0,4.34-2.15A9.45,9.45,0,0,0,150.26,68"/><path class="cls-2" d="M180.86,67.81c0,3.79-1,6.78-3.06,9A9,9,0,0,1,171,79.71c-2.92,0-5-1.06-6.31-3.16h-.09V88.26h-4.94v-24c0-2.38-.06-4.81-.18-7.32h4.34l.28,3.53h.09a8.78,8.78,0,0,1,14.07-.87,12.25,12.25,0,0,1,2.62,8.18m-5,.19a9.16,9.16,0,0,0-1.47-5.36,5.06,5.06,0,0,0-4.3-2.19,5.11,5.11,0,0,0-3.32,1.21,5.66,5.66,0,0,0-1.94,3.18,6.09,6.09,0,0,0-.23,1.51v3.71a5.89,5.89,0,0,0,1.49,4.09,4.89,4.89,0,0,0,3.86,1.67,5,5,0,0,0,4.35-2.15A9.52,9.52,0,0,0,175.84,68"/><path class="cls-2" d="M209.46,70.56a8.21,8.21,0,0,1-2.74,6.4c-2,1.81-4.81,2.7-8.4,2.7a14.72,14.72,0,0,1-8-1.92l1.14-4.11a13.59,13.59,0,0,0,7.15,2A6.75,6.75,0,0,0,203,74.33,4.13,4.13,0,0,0,204.52,71a4.32,4.32,0,0,0-1.28-3.16A12,12,0,0,0,199,65.42q-8.1-3-8.09-8.85a7.84,7.84,0,0,1,2.83-6.23,11.21,11.21,0,0,1,7.55-2.43,14.91,14.91,0,0,1,7,1.47l-1.23,4A12.23,12.23,0,0,0,201.13,52a6,6,0,0,0-4.07,1.28,3.66,3.66,0,0,0-1.23,2.79,3.75,3.75,0,0,0,1.42,3,15.78,15.78,0,0,0,4.48,2.39,15.13,15.13,0,0,1,5.86,3.75,7.84,7.84,0,0,1,1.87,5.35"/><path class="cls-2" d="M225.79,60.68h-5.44V71.47q0,4.13,2.88,4.12a9,9,0,0,0,2.2-.23l.13,3.75a11,11,0,0,1-3.84.55,5.89,5.89,0,0,1-4.57-1.78q-1.65-1.78-1.65-6V60.68h-3.25V57h3.25V52.9l4.85-1.47V57h5.44Z"/><path class="cls-2" d="M250.36,67.91a12.18,12.18,0,0,1-2.92,8.41,10.48,10.48,0,0,1-8.15,3.39,9.94,9.94,0,0,1-7.8-3.25,11.81,11.81,0,0,1-2.9-8.19,12.05,12.05,0,0,1,3-8.46,10.38,10.38,0,0,1,8.08-3.3,10.2,10.2,0,0,1,7.87,3.25,11.74,11.74,0,0,1,2.83,8.15m-5.12.16a10,10,0,0,0-1.33-5.28,4.87,4.87,0,0,0-4.43-2.66A5,5,0,0,0,235,62.79a10.19,10.19,0,0,0-1.33,5.37A9.94,9.94,0,0,0,235,73.43a5.05,5.05,0,0,0,8.92,0,10.05,10.05,0,0,0,1.37-5.32"/><path class="cls-2" d="M266.42,61.32a8.59,8.59,0,0,0-1.55-.14,4.67,4.67,0,0,0-4,2,7.42,7.42,0,0,0-1.24,4.39V79.21h-4.93l0-15.24c0-2.56-.07-4.89-.18-7h4.3l.18,4.26h.13a7.6,7.6,0,0,1,2.48-3.53,6,6,0,0,1,3.57-1.19,7.63,7.63,0,0,1,1.23.09Z"/><path class="cls-2" d="M288.51,67a12.85,12.85,0,0,1-.17,2.24H273.52a6.44,6.44,0,0,0,2.14,5,7.33,7.33,0,0,0,4.85,1.55,16.51,16.51,0,0,0,6-1l.77,3.44a18.68,18.68,0,0,1-7.46,1.37,10.83,10.83,0,0,1-8.12-3,11.28,11.28,0,0,1-2.95-8.17A12.79,12.79,0,0,1,271.5,60a9.48,9.48,0,0,1,7.77-3.56A8.32,8.32,0,0,1,286.56,60a12.11,12.11,0,0,1,1.95,7m-4.71-1.29a6.63,6.63,0,0,0-.95-3.79,4.34,4.34,0,0,0-3.94-2.06,4.68,4.68,0,0,0-3.93,2,7.23,7.23,0,0,0-1.46,3.84Z"/><path class="cls-2" d="M107.63,22.7H112c4.3,0,7.54,1.83,7.54,7s-3.3,7.12-7.54,7.12h-4.33Zm4.53,11.58c3.07,0,4.23-1.37,4.23-4.57,0-3-1.18-4.42-4.26-4.42h-1.41v9Z"/><path class="cls-2" d="M121.6,22.7h3.09V36.79H121.6Z"/><path class="cls-2" d="M126.71,33.59l2.34-1.39a4.17,4.17,0,0,0,3.81,2.4c1.43,0,2.45-.53,2.45-1.62s-1-1.52-2.85-2c-2.52-.71-5.14-1.36-5.14-4.31,0-2.62,2.05-4.21,5.08-4.21a6.33,6.33,0,0,1,5.6,2.9L135.85,27a4.22,4.22,0,0,0-3.47-2c-1.31,0-2,.57-2,1.41,0,1.12,1,1.52,2.9,2,2.47.67,5.1,1.45,5.1,4.36,0,2.27-1.71,4.29-5.63,4.29A6.3,6.3,0,0,1,126.71,33.59Z"/><path class="cls-2" d="M140.38,22.7h5.12c3,0,5.75.8,5.75,4.51s-3,4.57-5.79,4.57h-2v5h-3.08Zm5.19,6.69c1.93,0,2.65-.75,2.65-2.1s-.7-2.06-2.65-2.06h-2.11v4.16Z"/><path class="cls-2" d="M152.31,29.75c0-4.95,3.24-7.32,6.65-7.32s6.62,2.37,6.62,7.32-3.23,7.31-6.62,7.31S152.31,34.7,152.31,29.75Zm10.19,0c0-2.95-1.37-4.74-3.54-4.74s-3.55,1.79-3.55,4.74,1.36,4.81,3.55,4.81S162.5,32.7,162.5,29.75Z"/><path class="cls-2" d="M167.56,22.7h3.1l5.91,9h0v-9h2.86V36.79H176.6l-6.15-9.06h0v9.06h-2.86Z"/><path class="cls-2" d="M182.24,22.7h3.08V36.79h-3.08Z"/><path class="cls-2" d="M188.1,22.7h5.64c2.59,0,5,.63,5,3.49a3.07,3.07,0,0,1-2.68,3.23v0c1.71.31,3.06,1.2,3.06,3.45,0,2.84-2.49,3.88-5.12,3.88H188.1Zm5.33,5.81c1.62,0,2.36-.61,2.36-1.7s-.66-1.71-2.32-1.71h-2.32v3.41Zm.21,5.92c1.71,0,2.48-.68,2.48-1.88s-.9-1.85-2.61-1.85h-2.36v3.73Z"/><path class="cls-2" d="M201.41,22.7h3.1V34.28h6.21v2.51h-9.31Z"/><path class="cls-2" d="M212.29,22.7h9.6v2.59H215.4v3h4.7v2.46h-4.7v3.5h6.84v2.51h-10Z"/><path class="cls-2" d="M228.93,22.7h9.6v2.59H232v3h4.7v2.46H232v3.5h6.83v2.51h-9.94Z"/><path class="cls-2" d="M240.72,22.7h3.1l5.9,9h0v-9h2.86V36.79h-2.86l-6.15-9.06h0v9.06h-2.85Z"/></svg>