<svg id="Layer_1" data-name="Layer 1" xmlns="http://www.w3.org/2000/svg" viewBox="0 0 45 45"><defs><style>.cls-1{fill:#fff;}</style></defs><title>headphones</title><path class="cls-1" d="M34.73,25.39a.46.46,0,0,1-.47-.46V21.49a12.72,12.72,0,0,0-25.43-.28,2.53,2.53,0,0,0,0,.28v3.44a.47.47,0,0,1-.93,0V21.49c0-.1,0-.2,0-.3a13.65,13.65,0,0,1,27.29.3v3.44A.46.46,0,0,1,34.73,25.39Z"/><path class="cls-1" d="M30.05,13.28c-3.77-5.14-13.25-5.14-17,0A21.5,21.5,0,0,0,10.93,12c4.46-6.56,16.76-6.56,21.23,0A20.37,20.37,0,0,0,30.05,13.28Z"/><path class="cls-1" d="M30.05,13.74a.47.47,0,0,1-.38-.19,10,10,0,0,0-8.13-3.66,10,10,0,0,0-8.13,3.66.46.46,0,0,1-.64.11,20.65,20.65,0,0,0-2.07-1.3.46.46,0,0,1-.22-.3.44.44,0,0,1,.06-.37c2.19-3.21,6.3-5.12,11-5.12s8.82,1.91,11,5.12a.44.44,0,0,1,.07.37.44.44,0,0,1-.23.3,21.62,21.62,0,0,0-2.06,1.29A.48.48,0,0,1,30.05,13.74ZM11.61,11.8c.46.27.9.55,1.33.85A11,11,0,0,1,21.54,9a11,11,0,0,1,8.6,3.69c.44-.3.88-.58,1.34-.85-2.08-2.7-5.75-4.31-9.94-4.31S13.68,9.1,11.61,11.8Z"/><path class="cls-1" d="M30.05,13.74a.47.47,0,0,1-.38-.19,10,10,0,0,0-8.13-3.66,10,10,0,0,0-8.13,3.66.46.46,0,0,1-.64.11,20.65,20.65,0,0,0-2.07-1.3.46.46,0,0,1-.22-.3.44.44,0,0,1,.06-.37c2.19-3.21,6.3-5.12,11-5.12s8.82,1.91,11,5.12a.44.44,0,0,1,.07.37.44.44,0,0,1-.23.3,21.62,21.62,0,0,0-2.06,1.29A.48.48,0,0,1,30.05,13.74ZM11.61,11.8c.46.27.9.55,1.33.85A11,11,0,0,1,21.54,9a11,11,0,0,1,8.6,3.69c.44-.3.88-.58,1.34-.85-2.08-2.7-5.75-4.31-9.94-4.31S13.68,9.1,11.61,11.8Z"/><path class="cls-1" d="M24.89,38.3a.47.47,0,1,1,0-.93c4.43,0,7.55-1,9-2.79a4.08,4.08,0,0,0,.92-3.19.47.47,0,0,1,.36-.55.47.47,0,0,1,.55.36,5.05,5.05,0,0,1-1.11,4C33,37.25,29.67,38.3,24.89,38.3Z"/><path class="cls-1" d="M37.62,28.36c0-2.68-1.11-4.86-2.48-4.88h-.9v.3c-1,.69-1.82,2.47-1.82,4.58s.81,3.89,1.82,4.58v.3h.9C36.51,33.22,37.62,31,37.62,28.36Z"/><path class="cls-1" d="M35.14,33.7h-.9a.47.47,0,0,1-.46-.46v-.07A6.39,6.39,0,0,1,32,28.36a6.39,6.39,0,0,1,1.82-4.81v-.07a.47.47,0,0,1,.46-.46h.95c1.63.06,2.9,2.39,2.9,5.34s-1.3,5.32-3,5.34Zm-.46-.93h.45c1,0,2-1.83,2-4.41s-1.07-4.4-2-4.41h-.45a.63.63,0,0,1-.18.22,5.19,5.19,0,0,0-1.61,4.19,5.19,5.19,0,0,0,1.61,4.19A.55.55,0,0,1,34.68,32.77Z"/><path class="cls-1" d="M35.2,32.21a1.05,1.05,0,0,1-.92,1.15h-.93a1.06,1.06,0,0,1-.93-1.15v-7.7a1.06,1.06,0,0,1,.93-1.15h.93a1.05,1.05,0,0,1,.92,1.15Z"/><path class="cls-1" d="M34.28,33.82h-.93A1.51,1.51,0,0,1,32,32.21v-7.7a1.52,1.52,0,0,1,1.39-1.62h.93a1.52,1.52,0,0,1,1.38,1.62v7.7A1.51,1.51,0,0,1,34.28,33.82Zm-.93-10c-.25,0-.46.32-.46.69v7.7c0,.37.21.69.46.69h.93c.24,0,.46-.32.46-.69v-7.7c0-.37-.22-.69-.46-.69Z"/><path class="cls-1" d="M5.46,28.36c0-2.68,1.11-4.86,2.49-4.88h.89v.3c1,.69,1.82,2.47,1.82,4.58s-.81,3.89-1.82,4.58v.3H8C6.57,33.22,5.46,31,5.46,28.36Z"/><path class="cls-1" d="M8.84,33.7H8C6.29,33.68,5,31.33,5,28.36S6.27,23.08,7.89,23h1a.47.47,0,0,1,.47.46v.07a6.42,6.42,0,0,1,1.81,4.81,6.42,6.42,0,0,1-1.81,4.81v.07A.47.47,0,0,1,8.84,33.7ZM8,24H8c-1,0-2,1.82-2,4.41S7,32.76,8,32.77h.46a.46.46,0,0,1,.17-.22,5.19,5.19,0,0,0,1.62-4.19,5.19,5.19,0,0,0-1.62-4.19A.51.51,0,0,1,8.41,24Z"/><path class="cls-1" d="M7.88,32.21a1.06,1.06,0,0,0,.93,1.15h.93a1.05,1.05,0,0,0,.92-1.15v-7.7a1.05,1.05,0,0,0-.92-1.15H8.81a1.06,1.06,0,0,0-.93,1.15Z"/><path class="cls-1" d="M9.74,33.82H8.81a1.51,1.51,0,0,1-1.39-1.61v-7.7a1.52,1.52,0,0,1,1.39-1.62h.93a1.52,1.52,0,0,1,1.38,1.62v7.7A1.51,1.51,0,0,1,9.74,33.82Zm-.93-10c-.25,0-.46.32-.46.69v7.7c0,.37.21.69.46.69h.93c.24,0,.46-.32.46-.69v-7.7c0-.37-.22-.69-.46-.69Z"/><path class="cls-1" d="M26.22,37.85a1,1,0,0,1-1,.94H21.67a1,1,0,0,1-1-.94v0a1,1,0,0,1,1-.94h3.52a1,1,0,0,1,1,.94Z"/><path class="cls-1" d="M25.19,39.25H21.67a1.42,1.42,0,1,1,0-2.83h3.52a1.42,1.42,0,1,1,0,2.83Zm-3.52-1.9a.53.53,0,0,0-.57.47.54.54,0,0,0,.57.51h3.52a.5.5,0,1,0,0-1Z"/></svg>