<svg id="Layer_1" data-name="Layer 1" xmlns="http://www.w3.org/2000/svg" viewBox="0 0 45 45"><defs><style>.cls-1{fill:#0037b2;}</style></defs><title>instagram</title><path class="cls-1" d="M9.76,19.83a10,10,0,0,1,1.07-3.39,7.16,7.16,0,0,1,6.37-3.36c3.58-.09,7.16-.08,10.75,0a7.16,7.16,0,0,1,6.07,3,7.88,7.88,0,0,1,1.34,4.52c0,3.44.07,6.88,0,10.33-.06,2.77-1,5.13-3.62,6.54a8.13,8.13,0,0,1-3.85,1c-3.54,0-7.08.08-10.61,0A7.2,7.2,0,0,1,10.83,35a10.09,10.09,0,0,1-1.07-3.39Zm12.83-4.32c-1.75,0-3.51,0-5.27,0-2.74.06-4.43,1.35-4.93,3.71a8.77,8.77,0,0,0-.19,1.53c0,3.32-.06,6.65,0,10s1.74,5.08,4.93,5.19c3.61.13,7.22.12,10.82,0,2.66-.08,4.24-1.36,4.75-3.66A5.89,5.89,0,0,0,32.89,31c0-3.79.23-7.59-.11-11.37a4.3,4.3,0,0,0-3.94-4A54.33,54.33,0,0,0,22.59,15.51Z"/><path class="cls-1" d="M29.2,25.77a6.65,6.65,0,1,1-6.6-6.63A6.67,6.67,0,0,1,29.2,25.77Zm-2.46,0a4.18,4.18,0,1,0-4.19,4.13A4.19,4.19,0,0,0,26.74,25.74Z"/><path class="cls-1" d="M29.38,17.4A1.61,1.61,0,0,1,31,19a1.62,1.62,0,0,1-3.23,0A1.6,1.6,0,0,1,29.38,17.4Z"/></svg>