<svg id="Layer_1" data-name="Layer 1" xmlns="http://www.w3.org/2000/svg" viewBox="0 0 45 45"><defs><style>.cls-1{fill:#0037b2;}</style></defs><title>linkedin</title><path class="cls-1" d="M16.83,17.73A2.16,2.16,0,0,1,14.55,20a2.19,2.19,0,0,1-2.28-2.17,2.31,2.31,0,0,1,2.28-2.4A2.22,2.22,0,0,1,16.83,17.73Z"/><rect class="cls-1" x="12.27" y="21.16" width="4.57" height="14.84"/><path class="cls-1" d="M27.79,21.39a5,5,0,0,0-4.33,2.28h-.12l-.23-1.94H19c0,1.26.12,2.74.12,4.45V36h4.56V27.89a3.39,3.39,0,0,1,.12-1.14A2.44,2.44,0,0,1,26,24.93c1.6,0,2.28,1.37,2.28,3.19V36h4.57V27.55C32.82,23.33,30.65,21.39,27.79,21.39Z"/></svg>