<svg id="Layer_1" data-name="Layer 1" xmlns="http://www.w3.org/2000/svg" xmlns:xlink="http://www.w3.org/1999/xlink" viewBox="0 0 252 223.5"><defs><style>.cls-1,.cls-3{fill:none;}.cls-2{fill:#bdf4df;}.cls-3{stroke:#0037b2;stroke-miterlimit:10;stroke-width:1.78px;}.cls-4{fill:#0037b2;}.cls-5{clip-path:url(#clip-path);}</style><clipPath id="clip-path"><path class="cls-1" d="M89.28,80.71h25.34a5.88,5.88,0,0,1,5.88,5.88v18a5.88,5.88,0,0,1-5.88,5.88H89.28a5.89,5.89,0,0,1-5.89-5.89v-18A5.88,5.88,0,0,1,89.28,80.71Z" transform="translate(-16.06 20.73) rotate(-10.77)"/></clipPath></defs><title>m1</title><path class="cls-2" d="M184.57,177.53c-13.23,1.7-26.87,1-54.73-.78-15.65-1-47.11.65-62.81.78-11.45.1-20.73-8.66-20.73-19.34V91.56A19.68,19.68,0,0,1,67,72.22c10.62.58,26.23,2.89,42.5,1.48,19.35-1.68,56.09-3.11,75-1.48,11.4,1,20.73,8.66,20.73,19.34v66.63C205.3,168.87,195.92,176.08,184.57,177.53Z"/><path class="cls-3" d="M205.59,135.81a5.88,5.88,0,0,1-4.68,6.88l-110.23,21A5.88,5.88,0,0,1,83.8,159L69.44,83.44a5.89,5.89,0,0,1,4.68-6.89l110.22-21a5.9,5.9,0,0,1,6.89,4.69Z"/><path class="cls-3" d="M89.28,80.71h25.34a5.88,5.88,0,0,1,5.88,5.88v18a5.88,5.88,0,0,1-5.88,5.88H89.28a5.89,5.89,0,0,1-5.89-5.89v-18A5.88,5.88,0,0,1,89.28,80.71Z" transform="translate(-16.06 20.73) rotate(-10.77)"/><path class="cls-4" d="M106.66,143.09a8.25,8.25,0,0,1,0,3.17,7.29,7.29,0,0,1-1.15,2.73,7.4,7.4,0,0,1-2.19,2.08,9,9,0,0,1-3.13,1.19l-5.94,1.15-2.94-15.28L97.26,137a8.87,8.87,0,0,1,3.36-.05,7.29,7.29,0,0,1,2.8,1.11,7.1,7.1,0,0,1,2.08,2.11A8.07,8.07,0,0,1,106.66,143.09Zm-3.63.7a6.76,6.76,0,0,0-.69-2,4.35,4.35,0,0,0-1.14-1.38,3.86,3.86,0,0,0-1.53-.72,4.76,4.76,0,0,0-1.88,0l-2.37.46L97.31,150l2.37-.45a4.65,4.65,0,0,0,1.75-.69,3.71,3.71,0,0,0,1.16-1.24,4.53,4.53,0,0,0,.54-1.71A6.67,6.67,0,0,0,103,143.79Z"/><path class="cls-4" d="M116.72,133.23l.53,2.73L111,137.17l.68,3.56,4.8-.92.51,2.62-4.8.93.7,3.63,6.27-1.21.53,2.73-9.84,1.9-3-15.28Zm-1-3.51-2.66,2.84a1.62,1.62,0,0,1-.46.37,1.89,1.89,0,0,1-.58.18l-2.58.5,1.5-2.43a2.77,2.77,0,0,1,.22-.31,1.36,1.36,0,0,1,.56-.36,2.74,2.74,0,0,1,.41-.1Z"/><path class="cls-4" d="M121.68,148.12l-3-15.27,5.62-1.09a10.69,10.69,0,0,1,2.75-.22,5.15,5.15,0,0,1,2,.48,3.16,3.16,0,0,1,1.27,1.1,4.49,4.49,0,0,1,.65,1.65,3.13,3.13,0,0,1,0,1,2.74,2.74,0,0,1-.29,1,3.28,3.28,0,0,1-.66.92,5.27,5.27,0,0,1-1.07.82,4.26,4.26,0,0,1,2.47.76,3.17,3.17,0,0,1,1.13,2,4.62,4.62,0,0,1,0,1.89,4.28,4.28,0,0,1-.82,1.67,5.46,5.46,0,0,1-1.61,1.32,7.84,7.84,0,0,1-2.38.83Zm1.84-9.53,1.84-.36a6.23,6.23,0,0,0,1-.28,2.27,2.27,0,0,0,.75-.45,1.4,1.4,0,0,0,.39-.68,2.16,2.16,0,0,0,0-.95,2.5,2.5,0,0,0-.32-.88,1.21,1.21,0,0,0-.53-.5,1.8,1.8,0,0,0-.78-.18,4.68,4.68,0,0,0-1,.11l-2.07.4ZM124,141l.74,3.81,2.49-.49a3.17,3.17,0,0,0,1.12-.4,1.78,1.78,0,0,0,.6-.59,1.65,1.65,0,0,0,.23-.71,3.07,3.07,0,0,0-.05-.74,2.51,2.51,0,0,0-.25-.73,1.31,1.31,0,0,0-.49-.5,1.94,1.94,0,0,0-.78-.22,4.77,4.77,0,0,0-1.13.09Z"/><path class="cls-4" d="M139.31,144.72l-3.56.69-2.95-15.28,3.57-.68Z"/><path class="cls-4" d="M150.29,126.76l.54,2.81-4.3.83,2.41,12.47-3.55.68L143,131.08l-4.3.83-.54-2.81Z"/><path class="cls-4" d="M167.68,131.32a8.41,8.41,0,0,1,0,3.2,7.4,7.4,0,0,1-3.31,4.92,8.61,8.61,0,0,1-3.13,1.22,8.7,8.7,0,0,1-3.37,0,7.73,7.73,0,0,1-2.83-1.16,7.59,7.59,0,0,1-2.09-2.17,8.63,8.63,0,0,1-1.17-3,8.41,8.41,0,0,1,0-3.2,7.5,7.5,0,0,1,1.14-2.78,7.42,7.42,0,0,1,2.19-2.13,8.67,8.67,0,0,1,3.14-1.23,8.45,8.45,0,0,1,3.36,0,7.53,7.53,0,0,1,2.82,1.17,7.4,7.4,0,0,1,2.08,2.16A8.27,8.27,0,0,1,167.68,131.32Zm-3.63.7a6.43,6.43,0,0,0-.69-2,4.31,4.31,0,0,0-1.14-1.37,3.65,3.65,0,0,0-1.53-.71,4.77,4.77,0,0,0-1.88,0,4.7,4.7,0,0,0-1.76.69,3.68,3.68,0,0,0-1.17,1.22,4.37,4.37,0,0,0-.55,1.7,7.38,7.38,0,0,0,.79,4.09,4.31,4.31,0,0,0,1.14,1.37,3.67,3.67,0,0,0,1.54.7,5.26,5.26,0,0,0,3.64-.7,3.56,3.56,0,0,0,1.16-1.22,4.37,4.37,0,0,0,.55-1.7A6.68,6.68,0,0,0,164.05,132Z"/><g class="cls-5"><path class="cls-4" d="M93,90.46a1.09,1.09,0,0,1-1,1.17l-9.48,1.81a1.1,1.1,0,0,1-1.35-.74h0a1.09,1.09,0,0,1,1-1.17l9.49-1.81a1.09,1.09,0,0,1,1.34.74Z"/><path class="cls-4" d="M94.36,97.76a1.09,1.09,0,0,1-1,1.17l-9.49,1.81a1.09,1.09,0,0,1-1.34-.74h0a1.1,1.1,0,0,1,1-1.18L93,97a1.09,1.09,0,0,1,1.34.74Z"/><path class="cls-4" d="M95.6,104.29a1.09,1.09,0,0,1-1,1.17l-9.48,1.81a1.1,1.1,0,0,1-1.35-.73h0a1.11,1.11,0,0,1,1-1.19l9.49-1.8a1.09,1.09,0,0,1,1.34.74Z"/><path class="cls-4" d="M109.26,87.36a1.09,1.09,0,0,0,1.34.74l9.49-1.81a1.1,1.1,0,0,0,1-1.18h0a1.09,1.09,0,0,0-1.35-.73l-9.48,1.8a1.09,1.09,0,0,0-1,1.18Z"/><path class="cls-4" d="M110.65,94.66a1.09,1.09,0,0,0,1.34.73l9.49-1.8a1.09,1.09,0,0,0,1-1.17h0a1.1,1.1,0,0,0-1.35-.74l-9.48,1.8a1.08,1.08,0,0,0-1,1.18Z"/><path class="cls-4" d="M111.89,101.2a1.1,1.1,0,0,0,1.34.73l9.49-1.81a1.09,1.09,0,0,0,1-1.17h0a1.1,1.1,0,0,0-1.35-.74l-9.48,1.8a1.09,1.09,0,0,0-1,1.19Z"/><path class="cls-4" d="M108.34,94.22A6.53,6.53,0,1,1,100.7,89,6.54,6.54,0,0,1,108.34,94.22Z"/></g></svg>