<svg id="Layer_1" data-name="Layer 1" xmlns="http://www.w3.org/2000/svg" xmlns:xlink="http://www.w3.org/1999/xlink" viewBox="0 0 252 223.5"><defs><style>.cls-1,.cls-3,.cls-4{fill:none;}.cls-2,.cls-7{fill:#bdf4df;}.cls-3,.cls-4,.cls-7{stroke:#0037b2;stroke-miterlimit:10;}.cls-3{stroke-width:1.01px;}.cls-4,.cls-7{stroke-width:1.45px;}.cls-5{clip-path:url(#clip-path);}.cls-6{fill:#0037b2;}</style><clipPath id="clip-path"><rect class="cls-1" x="143.62" y="154.19" width="21.13" height="16.94" rx="3.35" transform="translate(-12.94 312) rotate(-88.32)"/></clipPath></defs><title>m2</title><path class="cls-2" d="M171.5,31.32c6.2,11.85,10,25,17.45,51.9,4.18,15.12,16.41,44.16,21.79,58.92,3.93,10.76-2.17,22.76-13.38,26.73L163.15,181l-35.74,12.66c-11.21,4-24.07-1.35-27.22-12.36-2.93-10.22-5.72-25.8-12.64-40.61-8.22-17.62-22-51.73-26.6-70.21C58.17,59.35,63.12,47.7,74.33,43.73l70-24.77C155.49,15,166.19,21.16,171.5,31.32Z"/><rect class="cls-3" x="143.62" y="154.19" width="21.13" height="16.94" rx="3.35" transform="translate(-12.94 312) rotate(-88.32)"/><path class="cls-4" d="M167.47,191.74c0,4-3.67,7.27-8.2,7.28H116.15c-4.53,0-8.21-3.25-8.21-7.26l0-33.94,59.53.09Z"/><g class="cls-5"><path class="cls-6" d="M158.14,158.3a.63.63,0,0,1-.54-.69l.17-5.5a.61.61,0,0,1,.57-.65h0a.6.6,0,0,1,.53.69l-.16,5.49a.62.62,0,0,1-.57.66Z"/><path class="cls-6" d="M153.91,158.18a.63.63,0,0,1-.54-.69l.17-5.5a.63.63,0,0,1,.57-.66h0a.63.63,0,0,1,.54.69l-.17,5.5a.63.63,0,0,1-.57.66Z"/><path class="cls-6" d="M150.12,158.06a.61.61,0,0,1-.53-.68l.16-5.5a.63.63,0,0,1,.57-.66h0a.63.63,0,0,1,.54.69l-.16,5.5a.62.62,0,0,1-.58.65Z"/><path class="cls-6" d="M157.86,167.74a.62.62,0,0,0-.57.66l-.16,5.49a.61.61,0,0,0,.53.69h0a.61.61,0,0,0,.57-.66l.17-5.49a.62.62,0,0,0-.54-.69Z"/><path class="cls-6" d="M153.63,167.61a.63.63,0,0,0-.57.66l-.16,5.5a.63.63,0,0,0,.53.69h0a.63.63,0,0,0,.58-.66l.16-5.5a.63.63,0,0,0-.54-.69Z"/><path class="cls-6" d="M149.84,167.5a.63.63,0,0,0-.57.66l-.16,5.5a.63.63,0,0,0,.53.69h0a.63.63,0,0,0,.58-.66l.16-5.5a.63.63,0,0,0-.54-.69Z"/><path class="cls-6" d="M154.16,166.38a3.72,3.72,0,1,1,3.83-3.6A3.71,3.71,0,0,1,154.16,166.38Z"/></g><polygon class="cls-1" points="170.6 58 171.48 58.01 171.48 58.01 170.6 58 170.6 58"/><path class="cls-7" d="M175.64,151.94c0,5.09-4.66,9.22-10.4,9.23l-54.74,0c-5.75,0-10.4-4.13-10.4-9.22l0-111.79c0-5.1,4.66-9.23,10.41-9.23l54.73,0c5.75,0,10.41,4.13,10.41,9.23Z"/><path class="cls-4" d="M164.51,83.76a4.35,4.35,0,0,1-4.35,4.35H115.53a4.36,4.36,0,0,1-4.36-4.35V52.21a4.36,4.36,0,0,1,4.36-4.36h44.62a4.36,4.36,0,0,1,4.36,4.35Z"/><path class="cls-6" d="M144.43,110.19a2.34,2.34,0,0,1-2.1,2.53h-8.09a2.35,2.35,0,0,1-2.11-2.54v-4.71a2.34,2.34,0,0,1,2.1-2.53h8.09a2.34,2.34,0,0,1,2.12,2.52Z"/><path class="cls-6" d="M144.25,128.33a2.34,2.34,0,0,1-2.11,2.53h-8.08a2.35,2.35,0,0,1-2.11-2.54v-4.71a2.34,2.34,0,0,1,2.1-2.53h8.09a2.33,2.33,0,0,1,2.11,2.52Z"/><path class="cls-6" d="M144.07,146.73a2.34,2.34,0,0,1-2.11,2.52h-8.08a2.36,2.36,0,0,1-2.12-2.53V142a2.34,2.34,0,0,1,2.1-2.53H142a2.34,2.34,0,0,1,2.11,2.52Z"/><path class="cls-6" d="M166.75,110.23a2.34,2.34,0,0,1-2.11,2.52h-8.08a2.36,2.36,0,0,1-2.12-2.53v-4.72a2.34,2.34,0,0,1,2.1-2.53h8.09a2.33,2.33,0,0,1,2.11,2.52Z"/><path class="cls-6" d="M166.57,128.37a2.34,2.34,0,0,1-2.11,2.52h-8.08a2.35,2.35,0,0,1-2.12-2.53v-4.72a2.34,2.34,0,0,1,2.1-2.53h8.09a2.34,2.34,0,0,1,2.11,2.53Z"/><path class="cls-6" d="M166.39,146.76a2.35,2.35,0,0,1-2.11,2.53h-8.09a2.35,2.35,0,0,1-2.11-2.53V142a2.35,2.35,0,0,1,2.11-2.53h8.09a2.35,2.35,0,0,1,2.11,2.53Z"/><path class="cls-6" d="M122.11,110.16a2.33,2.33,0,0,1-2.1,2.53h-8.09a2.37,2.37,0,0,1-2.11-2.54v-4.72a2.35,2.35,0,0,1,2.11-2.53H120a2.33,2.33,0,0,1,2.11,2.52Z"/><path class="cls-6" d="M121.93,128.3a2.34,2.34,0,0,1-2.1,2.53h-8.09a2.37,2.37,0,0,1-2.11-2.54v-4.71a2.34,2.34,0,0,1,2.11-2.53h8.08a2.34,2.34,0,0,1,2.12,2.52Z"/><path class="cls-6" d="M121.75,146.69a2.34,2.34,0,0,1-2.11,2.53h-8.08a2.35,2.35,0,0,1-2.11-2.54V142a2.34,2.34,0,0,1,2.1-2.53h8.09a2.33,2.33,0,0,1,2.11,2.52Z"/><path class="cls-6" d="M120.78,71.23l-.1,5.14-3.57-.06.28-15.39,5.43.09a9,9,0,0,1,2.79.44,5.32,5.32,0,0,1,1.9,1.1,4.08,4.08,0,0,1,1.09,1.61,5.23,5.23,0,0,1,.32,2,6,6,0,0,1-.4,2.11,4.31,4.31,0,0,1-1.16,1.63,5.49,5.49,0,0,1-2,1,9,9,0,0,1-2.77.33Zm0-2.7,1.86,0a2.26,2.26,0,0,0,2.66-2.48,2.69,2.69,0,0,0-.14-1,1.92,1.92,0,0,0-.47-.76,2.21,2.21,0,0,0-.8-.49,3.41,3.41,0,0,0-1.17-.19l-1.86,0Z"/><path class="cls-6" d="M145.93,69.12a8.28,8.28,0,0,1-.63,3.1,7.44,7.44,0,0,1-1.67,2.47,7.32,7.32,0,0,1-2.55,1.62,9.24,9.24,0,0,1-6.55-.12,7.51,7.51,0,0,1-2.5-1.71A7.42,7.42,0,0,1,130.45,72a8.17,8.17,0,0,1-.52-3.11,8.28,8.28,0,0,1,.63-3.1,7.28,7.28,0,0,1,1.68-2.46,7.41,7.41,0,0,1,2.56-1.62,8.66,8.66,0,0,1,3.28-.54,8.32,8.32,0,0,1,3.26.67,7.37,7.37,0,0,1,2.49,1.71A7.28,7.28,0,0,1,145.41,66,8.15,8.15,0,0,1,145.93,69.12Zm-3.66-.06A6.36,6.36,0,0,0,142,67a4.22,4.22,0,0,0-.82-1.56,3.61,3.61,0,0,0-1.34-1,4.54,4.54,0,0,0-1.82-.37,4.7,4.7,0,0,0-1.85.3,3.71,3.71,0,0,0-1.38.95,4.42,4.42,0,0,0-.88,1.53,6.52,6.52,0,0,0-.33,2.05,6.38,6.38,0,0,0,.26,2.07,4.27,4.27,0,0,0,.82,1.57,3.58,3.58,0,0,0,1.34,1,4.83,4.83,0,0,0,1.84.36,4.48,4.48,0,0,0,1.84-.3,3.61,3.61,0,0,0,1.37-.94,4.24,4.24,0,0,0,.88-1.53A6.54,6.54,0,0,0,142.27,69.06Z"/><path class="cls-6" d="M156.3,64.75a1.37,1.37,0,0,1-.34.37.79.79,0,0,1-.45.12,1.11,1.11,0,0,1-.52-.16l-.63-.36a5.46,5.46,0,0,0-.8-.36,3.52,3.52,0,0,0-1-.17,2.22,2.22,0,0,0-1.5.4,1.44,1.44,0,0,0-.52,1.15,1.12,1.12,0,0,0,.28.78,2.51,2.51,0,0,0,.77.54,8.85,8.85,0,0,0,1.09.43c.41.13.83.27,1.26.43a11.63,11.63,0,0,1,1.25.56,4.32,4.32,0,0,1,1.09.8,3.68,3.68,0,0,1,.75,1.17,4.14,4.14,0,0,1,.27,1.65,5.28,5.28,0,0,1-.41,2,4.67,4.67,0,0,1-1.1,1.6A5,5,0,0,1,154,76.75a6.45,6.45,0,0,1-2.35.35,7.44,7.44,0,0,1-1.46-.17,8.8,8.8,0,0,1-1.43-.45,6.9,6.9,0,0,1-1.3-.66,5.3,5.3,0,0,1-1.06-.84l1.09-1.65a.8.8,0,0,1,.33-.3,1,1,0,0,1,.46-.11,1.18,1.18,0,0,1,.64.21l.72.46a5.63,5.63,0,0,0,.92.46,3.58,3.58,0,0,0,1.25.22,2.39,2.39,0,0,0,1.52-.4,1.64,1.64,0,0,0,.56-1.35,1.28,1.28,0,0,0-.28-.88,2.18,2.18,0,0,0-.77-.57,6.42,6.42,0,0,0-1.08-.41c-.41-.12-.83-.26-1.25-.4a9.19,9.19,0,0,1-1.25-.53,3.92,3.92,0,0,1-1.08-.81,3.76,3.76,0,0,1-.76-1.24,5.15,5.15,0,0,1-.26-1.82,4.37,4.37,0,0,1,1.43-3.13,4.84,4.84,0,0,1,1.68-1,5.93,5.93,0,0,1,2.26-.35,7.66,7.66,0,0,1,1.37.14,6.41,6.41,0,0,1,1.27.35,7.7,7.7,0,0,1,1.12.53,5.43,5.43,0,0,1,.92.7Z"/></svg>