<svg id="Layer_1" data-name="Layer 1" xmlns="http://www.w3.org/2000/svg" viewBox="0 0 252 223.5"><defs><style>.cls-1{fill:#bdf4df;}.cls-2{fill:#0037b2;}.cls-3{fill:none;stroke:#0037b2;stroke-linecap:round;stroke-miterlimit:10;stroke-width:4px;}</style></defs><title>m4</title><path class="cls-1" d="M167.53,179.27c-11.15,2.16-22.65,1.26-46.13-1-13.18-1.27-39.7.83-52.93,1-9.65.12-17.47-11-17.47-24.59V70c0-13.58,7.84-25.38,17.47-24.59,8.94.75,22.1,3.68,35.81,1.88,16.32-2.13,47.28-3.95,63.25-1.88C177.14,46.66,185,56.42,185,70v84.68C185,168.26,177.09,177.42,167.53,179.27Z"/><path class="cls-2" d="M78.4,52.5v47.62H126V52.5Zm39.94,39.94H86.08V60.18h32.26Z"/><rect class="cls-2" x="91.95" y="66.48" width="19.67" height="19.66"/><path class="cls-2" d="M78.4,109.56v47.62H126V109.56Zm39.94,39.94H86.08V117.24h32.26Z"/><rect class="cls-3" x="91.95" y="123.54" width="19.67" height="19.66"/><path class="cls-2" d="M133.3,52.5v47.62h47.62V52.5Zm39.94,39.94H141V60.18h32.26Z"/><polyline class="cls-3" points="146.85 66.48 146.85 86.14 166.52 86.14"/><path class="cls-2" d="M133.3,109.56v47.62h47.62V109.56Zm39.94,39.94H141V117.24h32.26Z"/><polygon class="cls-2" points="152.84 129.13 144.05 129.13 144.05 137.93 144.05 146.73 152.84 146.73 152.84 137.93 152.84 129.13"/><rect class="cls-2" x="161.64" y="129.13" width="8.8" height="8.8"/><rect class="cls-2" x="152.84" y="120.33" width="8.8" height="8.8"/></svg>