<svg id="Layer_1" data-name="Layer 1" xmlns="http://www.w3.org/2000/svg" viewBox="0 0 252 223.5"><defs><style>.cls-1{fill:#bdf4df;}.cls-2{fill:none;stroke:#0037b2;stroke-miterlimit:10;stroke-width:1.75px;}.cls-3{fill:#0037b2;}</style></defs><title>m5</title><path class="cls-1" d="M167.27,167.61c-10.66,1.56-21.63.91-44.06-.72-12.6-.91-37.92.6-50.57.72C63.43,167.7,56,159.68,56,149.9v-61c0-9.79,7.48-18.3,16.68-17.72,8.55.53,21.12,2.65,34.22,1.35C122.44,71,152,69.66,167.27,71.16c9.18.9,16.69,7.93,16.69,17.72v61C184,159.68,176.4,166.28,167.27,167.61Z"/><path class="cls-2" d="M195.94,132.51a5.88,5.88,0,0,1-4.69,6.87L81,160.34a5.88,5.88,0,0,1-6.88-4.67L59.78,80.13a5.88,5.88,0,0,1,4.69-6.88l110.22-21A5.88,5.88,0,0,1,181.57,57Z"/><circle class="cls-3" cx="123.76" cy="93.05" r="15.17" transform="translate(-18.05 155.22) rotate(-60.61)"/><path class="cls-3" d="M132.94,135.49C104.8,139.57,91.46,112,91.46,112s-3-5.89,1.12-7.91,6.89,2.14,6.89,2.14,8.72,15.93,29.3,12.17l2.25-.55c20-6.15,20.39-24.31,20.39-24.31s.57-5,5.13-5.07,4.64,6.5,4.64,6.5.85,30.57-26,39.93Z"/></svg>