<svg id="Layer_1" data-name="Layer 1" xmlns="http://www.w3.org/2000/svg" viewBox="0 0 252 223.5"><defs><style>.cls-1{fill:#bdf4df;}.cls-2,.cls-4{fill:none;stroke:#0037b2;stroke-miterlimit:10;}.cls-2{stroke-width:1.97px;}.cls-3{fill:#0037b2;}.cls-4{stroke-width:2.88px;}</style></defs><title>m6</title><path class="cls-1" d="M153.54,187.39c-11.15-2.46-21.55-7.66-42.63-18.64-11.84-6.17-37.29-14.6-49.68-19.56-9-3.62-12.4-16.13-7.6-27.72L68.25,86.12,83.53,49.2c4.8-11.59,16.27-18.64,25-14.24,8.08,4.08,19.3,11.66,32.72,15.41,15.95,4.47,45.45,14.86,59.6,22.79,8.52,4.77,12.4,16.13,7.6,27.72l-29.9,72.26C173.71,184.73,163.1,189.5,153.54,187.39Z"/><path class="cls-2" d="M73.46,60.33,41,78.12a4.37,4.37,0,0,0,2.1,8.21H108a4.37,4.37,0,0,0,2.1-8.21L77.67,60.33A4.43,4.43,0,0,0,73.46,60.33Z"/><path class="cls-2" d="M106.86,143.56H44.92a6.81,6.81,0,0,1-6.81-6.81h0a6.81,6.81,0,0,1,6.81-6.81h61.94a6.81,6.81,0,0,1,6.81,6.81h0A6.81,6.81,0,0,1,106.86,143.56Z"/><path class="cls-3" d="M58.58,115.65a1.15,1.15,0,0,1,.44.09,1,1,0,0,1,.41.28l2.42,2.54a10,10,0,0,1-4,3.14,14,14,0,0,1-5.66,1.06,13.37,13.37,0,0,1-5.38-1,11.74,11.74,0,0,1-4-2.81,12.43,12.43,0,0,1-2.54-4.27,15.74,15.74,0,0,1-.88-5.36,14,14,0,0,1,1-5.41,12.56,12.56,0,0,1,2.83-4.25,12.78,12.78,0,0,1,4.34-2.78,15,15,0,0,1,5.59-1,14.68,14.68,0,0,1,2.79.26,13.63,13.63,0,0,1,2.44.73,11,11,0,0,1,2.1,1.1,9.93,9.93,0,0,1,1.7,1.42l-2.06,2.76a2.57,2.57,0,0,1-.47.46,1.21,1.21,0,0,1-.76.21,1.4,1.4,0,0,1-.61-.14,7,7,0,0,1-.62-.36l-.71-.45a6.07,6.07,0,0,0-.92-.45,7,7,0,0,0-1.25-.35,8.21,8.21,0,0,0-1.67-.15,7.7,7.7,0,0,0-3,.59,6.58,6.58,0,0,0-2.35,1.68,7.77,7.77,0,0,0-1.54,2.65,10.29,10.29,0,0,0-.55,3.48,10.81,10.81,0,0,0,.55,3.6,8,8,0,0,0,1.5,2.65,6.39,6.39,0,0,0,2.21,1.63,6.55,6.55,0,0,0,2.71.56,11.83,11.83,0,0,0,1.52-.08,6.3,6.3,0,0,0,1.28-.28,5.94,5.94,0,0,0,1.12-.51,7.92,7.92,0,0,0,1.07-.79,2.09,2.09,0,0,1,.47-.3A1.2,1.2,0,0,1,58.58,115.65Z"/><path class="cls-3" d="M64.64,122.47V96.14h9.68a18.2,18.2,0,0,1,4.64.51,8.81,8.81,0,0,1,3.13,1.42,5.46,5.46,0,0,1,1.76,2.25,7.48,7.48,0,0,1,.55,2.94,5.75,5.75,0,0,1-.25,1.71,4.82,4.82,0,0,1-.8,1.54A5.84,5.84,0,0,1,82,107.82a8.82,8.82,0,0,1-2,1,7.32,7.32,0,0,1,3.85,2A5.33,5.33,0,0,1,85,114.53a7.59,7.59,0,0,1-.65,3.13,7.27,7.27,0,0,1-1.91,2.52,8.94,8.94,0,0,1-3.1,1.68,13.57,13.57,0,0,1-4.21.61Zm6.1-15.25h3.18a10.11,10.11,0,0,0,1.83-.15,3.7,3.7,0,0,0,1.38-.5,2.35,2.35,0,0,0,.87-1,3.7,3.7,0,0,0,.3-1.59,4.41,4.41,0,0,0-.24-1.56,2.25,2.25,0,0,0-.72-1,2.87,2.87,0,0,0-1.24-.54,8.33,8.33,0,0,0-1.78-.17H70.74Zm0,4.08v6.56H75a5.27,5.27,0,0,0,2-.31,3.14,3.14,0,0,0,1.2-.79,2.74,2.74,0,0,0,.6-1.11,4.69,4.69,0,0,0,.16-1.24,4,4,0,0,0-.19-1.3,2.09,2.09,0,0,0-.65-1,3.17,3.17,0,0,0-1.22-.61A6.82,6.82,0,0,0,75,111.3Z"/><path class="cls-3" d="M99.29,117.64a5.68,5.68,0,0,0,2.2-.4,4.56,4.56,0,0,0,1.63-1.17,5,5,0,0,0,1-1.85,8,8,0,0,0,.35-2.49V96.14h6.11v15.59a12.06,12.06,0,0,1-.79,4.45,10,10,0,0,1-2.24,3.49,10.3,10.3,0,0,1-3.56,2.27,14,14,0,0,1-9.45,0A10.11,10.11,0,0,1,91,119.67a9.74,9.74,0,0,1-2.24-3.49,12.27,12.27,0,0,1-.78-4.45V96.14h6.11v15.58a8,8,0,0,0,.35,2.48,5.07,5.07,0,0,0,1,1.86,4.59,4.59,0,0,0,1.63,1.18A5.68,5.68,0,0,0,99.29,117.64Z"/><path class="cls-4" d="M202.23,36.35l-46.74,0c-6.4,0-11.58,4.68-11.58,10.44L144,160c0,5.76,5.19,10.43,11.59,10.43l46.74,0c6.4,0,11.58-4.68,11.58-10.45l-.07-113.17C213.81,41,208.63,36.34,202.23,36.35Z"/><path class="cls-3" d="M185.08,47.33a1.25,1.25,0,0,1-1.31,1.18h-10a1.25,1.25,0,0,1-1.31-1.17h0a1.25,1.25,0,0,1,1.31-1.19h10a1.25,1.25,0,0,1,1.31,1.18Z"/><path class="cls-3" d="M180.22,41.92a1.42,1.42,0,1,1-1.42-1.27A1.35,1.35,0,0,1,180.22,41.92Z"/><path class="cls-3" d="M170.2,47.34a1.42,1.42,0,1,1-1.42-1.28A1.35,1.35,0,0,1,170.2,47.34Z"/><path class="cls-3" d="M185,160a5.45,5.45,0,1,1-5.42-4.89A5.17,5.17,0,0,1,185,160Z"/><rect class="cls-4" x="154.52" y="55.04" width="48.55" height="81.22"/><path class="cls-3" d="M169.87,101.36a.52.52,0,0,1,.21,0,.46.46,0,0,1,.19.13l1.15,1.21a4.74,4.74,0,0,1-1.89,1.48,7.22,7.22,0,0,1-5.23,0,5.45,5.45,0,0,1-1.91-1.34,5.83,5.83,0,0,1-1.2-2,7.44,7.44,0,0,1-.42-2.54,6.67,6.67,0,0,1,.48-2.56,6.1,6.1,0,0,1,1.34-2,6.18,6.18,0,0,1,2.06-1.32,7.25,7.25,0,0,1,2.64-.47,6.32,6.32,0,0,1,1.33.13,6,6,0,0,1,1.16.34,5.16,5.16,0,0,1,1,.52,5.34,5.34,0,0,1,.81.67l-1,1.31a1.15,1.15,0,0,1-.22.22.57.57,0,0,1-.36.1.59.59,0,0,1-.29-.07l-.29-.16-.34-.22a2.25,2.25,0,0,0-.44-.21,3.8,3.8,0,0,0-.59-.17,3.74,3.74,0,0,0-.79-.07,3.52,3.52,0,0,0-1.44.28,3.2,3.2,0,0,0-1.12.8,3.75,3.75,0,0,0-.73,1.25,5,5,0,0,0-.26,1.65,5.3,5.3,0,0,0,.26,1.71,3.89,3.89,0,0,0,.71,1.25,3.07,3.07,0,0,0,1.05.78,3.27,3.27,0,0,0,1.29.26,5.39,5.39,0,0,0,.72,0,2.91,2.91,0,0,0,.6-.13,2.53,2.53,0,0,0,.53-.24,3.37,3.37,0,0,0,.51-.38,1.64,1.64,0,0,1,.22-.14A.74.74,0,0,1,169.87,101.36Z"/><path class="cls-3" d="M171.71,92.11H174a1.08,1.08,0,0,1,.62.17,1,1,0,0,1,.34.45l2.42,6.68c.11.3.21.61.33,1s.21.71.31,1.08c.08-.37.17-.73.28-1.08s.21-.65.31-1l2.4-6.68a.94.94,0,0,1,.33-.43,1,1,0,0,1,.61-.19h2.35l-5,12.48h-2.62Z"/><path class="cls-3" d="M190.55,102.3a2.61,2.61,0,0,0,1-.19,2.11,2.11,0,0,0,.78-.56,2.45,2.45,0,0,0,.48-.87A3.91,3.91,0,0,0,193,99.5V92.11h2.89V99.5a5.78,5.78,0,0,1-.37,2.11,4.73,4.73,0,0,1-1.06,1.65,5,5,0,0,1-1.69,1.08,6.79,6.79,0,0,1-4.48,0,4.9,4.9,0,0,1-1.69-1.08,4.73,4.73,0,0,1-1.06-1.65,6,6,0,0,1-.37-2.11V92.11h2.9v7.38a3.92,3.92,0,0,0,.16,1.18,2.68,2.68,0,0,0,.49.88,2.16,2.16,0,0,0,.77.56A2.68,2.68,0,0,0,190.55,102.3Z"/></svg>