<svg id="Layer_1" data-name="Layer 1" xmlns="http://www.w3.org/2000/svg" viewBox="0 0 252 223.5"><defs><style>.cls-1{fill:#bdf4df;}.cls-2{fill:none;stroke:#0037b2;stroke-miterlimit:10;stroke-width:1.56px;}.cls-3{fill:#0037b2;}</style></defs><title>m7</title><path class="cls-1" d="M170.16,172.38c-9.07,2-18.42,1.15-37.52-.91-10.73-1.16-32.3.76-43.06.91-7.85.11-14.21-10-14.21-22.42V72.75c0-12.38,6.38-23.14,14.21-22.42,7.28.68,18,3.36,29.13,1.72,13.27-1.95,38.45-3.61,51.45-1.72,7.81,1.14,14.21,10,14.21,22.42V150C184.37,162.34,177.93,170.69,170.16,172.38Z"/><polygon class="cls-2" points="173.72 131.37 173.56 45.28 166.56 50.93 158.94 44.87 158.79 44.87 151.34 50.88 143.81 44.9 143.48 44.9 136.12 50.83 128.68 44.92 128.17 44.92 120.89 50.79 113.56 44.96 112.85 44.96 105.68 50.74 98.43 44.98 97.54 44.98 90.45 50.69 83.3 45.01 82.22 45.01 75.23 50.64 68.17 45.04 67.63 45.04 67.72 92.92 67.63 92.92 67.79 179 74.79 173.36 82.41 179.42 82.56 179.42 90.02 173.4 97.54 179.38 97.87 179.38 105.23 173.45 112.67 179.36 113.18 179.36 120.46 173.5 127.79 179.33 128.5 179.33 135.67 173.55 142.92 179.31 143.81 179.31 150.9 173.59 158.05 179.27 159.13 179.27 166.12 173.65 173.18 179.25 173.72 179.25 173.63 131.37 173.72 131.37"/><rect class="cls-3" x="78.34" y="70.71" width="84.79" height="4.65" transform="translate(-0.13 0.22) rotate(-0.11)"/><rect class="cls-3" x="78.37" y="84.03" width="84.8" height="4.64" transform="translate(-0.15 0.21) rotate(-0.1)"/><rect class="cls-3" x="78.42" y="97.34" width="84.79" height="4.64" transform="translate(-0.18 0.22) rotate(-0.11)"/><rect class="cls-3" x="78.45" y="110.66" width="84.79" height="4.64" transform="translate(-0.2 0.21) rotate(-0.1)"/></svg>