<svg id="Layer_1" data-name="Layer 1" xmlns="http://www.w3.org/2000/svg" viewBox="0 0 252 223.5"><defs><style>.cls-1{fill:#bdf4df;}.cls-2{fill:#0037b2;}</style></defs><title>m8</title><path class="cls-1" d="M75,159.77c-2.87-8.83-3-18.21-2.9-37.43.06-10.78-4-32-5.28-42.74-.91-7.79,8.54-15.15,20.85-16.41l37.57-3.84,39.25-4c12.31-1.26,23.67,4,23.74,11.85.07,7.31-1.51,18.23,1.25,29.16,3.29,13,7.5,37.89,6.94,51-.34,7.89-8.54,15.15-20.86,16.41l-76.81,7.85C86.42,172.88,77.46,167.33,75,159.77Z"/><path class="cls-2" d="M56.58,92.92h8.1l3.86,16.65a79.23,79.23,0,0,1,1.78,8h.09c.45-3,1-5.34,1.68-8l3.71-16.7h7.41l4,16.8a80.43,80.43,0,0,1,1.73,7.86H89c.5-3.31.94-4.8,1.63-7.76l3.71-16.9h7.41L92.2,129.48H85.33L79.55,104h-.09l-6.18,25.44h-7Z"/><path class="cls-2" d="M103.12,92.92h8.1l3.86,16.65a79.23,79.23,0,0,1,1.78,8h.1a79.32,79.32,0,0,1,1.67-8l3.71-16.7h7.41l3.95,16.8a77.61,77.61,0,0,1,1.73,7.86h.1c.5-3.31.94-4.8,1.63-7.76l3.71-16.9h7.41l-9.54,36.56h-6.86L126.1,104H126l-6.18,25.44h-7Z"/><path class="cls-2" d="M149.66,92.92h8.11l3.85,16.65a79.23,79.23,0,0,1,1.78,8h.1a76.56,76.56,0,0,1,1.68-8l3.7-16.7h7.41l4,16.8c.69,2.92,1.23,4.6,1.73,7.86h.09c.5-3.31.94-4.8,1.63-7.76l3.71-16.9h7.41l-9.53,36.56h-6.87L172.64,104h-.1l-6.18,25.44h-7Z"/></svg>