<svg id="Layer_1" data-name="Layer 1" xmlns="http://www.w3.org/2000/svg" viewBox="0 0 334 113"><defs><style>.cls-1{fill:none;stroke:#fff;stroke-miterlimit:10;stroke-width:1.71px;}.cls-2{fill:#fff;}</style></defs><title>playstore2</title><g id="g12"><g id="g14"><g id="g38"><path id="path40" class="cls-1" d="M309.54,12.33H24.15A11.45,11.45,0,0,0,12.73,23.74V92.23a11.45,11.45,0,0,0,11.42,11.42H309.54A11.45,11.45,0,0,0,321,92.23V23.74a11.44,11.44,0,0,0-11.41-11.41"/></g><path id="path42" class="cls-2" d="M256.88,80.82h4.26V52.28h-4.26Zm38.37-18.26-4.88,12.37h-.15l-5.07-12.37h-4.58l7.6,17.29-4.33,9.62h4.44L300,62.56Zm-24.16,15c-1.39,0-3.34-.7-3.34-2.43,0-2.2,2.42-3,4.52-3a7.6,7.6,0,0,1,3.89,1,5.17,5.17,0,0,1-5.07,4.52m.52-15.65c-3.09,0-6.28,1.36-7.6,4.37l3.78,1.58a4,4,0,0,1,3.89-2.09c2.2,0,4.44,1.32,4.48,3.67v.29a9.41,9.41,0,0,0-4.44-1.1c-4.08,0-8.23,2.24-8.23,6.43,0,3.82,3.34,6.28,7.09,6.28A6,6,0,0,0,276,78.57h.15v2.2h4.11V69.83c0-5.07-3.78-7.9-8.66-7.9M245.28,66h-6.06V56.25h6.06a4.89,4.89,0,1,1,0,9.78m-.11-13.75H235V80.82h4.26V70h5.95c4.72,0,9.36-3.42,9.36-8.87s-4.64-8.86-9.36-8.86M189.5,77.58a5.91,5.91,0,0,1,0-11.77c2.91,0,5.19,2.5,5.19,5.92s-2.28,5.85-5.19,5.85m4.9-13.42h-.15A6.74,6.74,0,0,0,189.14,62a9.72,9.72,0,0,0,0,19.42,6.62,6.62,0,0,0,5.11-2.21h.15v1.4c0,3.71-2,5.7-5.19,5.7a5.37,5.37,0,0,1-4.89-3.46l-3.72,1.55a9.26,9.26,0,0,0,8.61,5.73c5,0,9.23-2.94,9.23-10.11V62.57h-4Zm7,16.66h4.27V52.27h-4.27Zm10.56-9.42A5.33,5.33,0,0,1,217,65.74a3.75,3.75,0,0,1,3.6,2.06Zm13.24-3.23C224.37,66,221.91,62,216.87,62s-9.16,3.93-9.16,9.71a9.51,9.51,0,0,0,9.64,9.71,9.64,9.64,0,0,0,8.09-4.31l-3.31-2.2a5.55,5.55,0,0,1-4.78,2.68,4.94,4.94,0,0,1-4.71-2.94l13-5.37ZM121.74,65v4.12h9.85a8.56,8.56,0,0,1-2.24,5.18,10.06,10.06,0,0,1-7.61,3,11,11,0,0,1,0-21.92,10.5,10.5,0,0,1,7.43,2.94l2.9-2.91a14.36,14.36,0,0,0-10.33-4.15,15.08,15.08,0,1,0,0,30.16,13.83,13.83,0,0,0,10.52-4.23,13.62,13.62,0,0,0,3.56-9.64A13.1,13.1,0,0,0,135.6,65ZM147,77.58a5.9,5.9,0,1,1,5.48-5.88A5.62,5.62,0,0,1,147,77.58M147,62a9.71,9.71,0,1,0,9.75,9.71A9.57,9.57,0,0,0,147,62M168.3,77.58a5.9,5.9,0,1,1,5.47-5.88,5.62,5.62,0,0,1-5.47,5.88m0-15.59A9.71,9.71,0,1,0,178,71.7,9.57,9.57,0,0,0,168.3,62"/></g></g><path class="cls-2" d="M106.49,27.36h4.32c4.31,0,7.55,1.83,7.55,7s-3.3,7.12-7.55,7.12h-4.32ZM111,38.94c3.07,0,4.23-1.37,4.23-4.57,0-3-1.18-4.42-4.26-4.42h-1.41v9Z"/><path class="cls-2" d="M120.46,27.36h3.09V41.45h-3.09Z"/><path class="cls-2" d="M125.57,38.25l2.34-1.39a4.17,4.17,0,0,0,3.81,2.4c1.43,0,2.45-.53,2.45-1.62s-1-1.52-2.85-2c-2.52-.71-5.14-1.36-5.14-4.31,0-2.63,2-4.21,5.08-4.21a6.32,6.32,0,0,1,5.6,2.9l-2.15,1.64a4.22,4.22,0,0,0-3.47-2c-1.31,0-2,.57-2,1.41,0,1.12,1.05,1.52,2.9,2,2.47.67,5.1,1.45,5.1,4.36,0,2.27-1.71,4.29-5.63,4.29A6.3,6.3,0,0,1,125.57,38.25Z"/><path class="cls-2" d="M139.24,27.36h5.12c3,0,5.75.8,5.75,4.51s-3,4.57-5.79,4.57h-2v5h-3.08ZM144.43,34c1.93,0,2.65-.74,2.65-2.09s-.7-2.06-2.65-2.06h-2.11V34Z"/><path class="cls-2" d="M151.17,34.41c0-4.95,3.24-7.32,6.65-7.32s6.62,2.37,6.62,7.32-3.23,7.31-6.62,7.31S151.17,39.36,151.17,34.41Zm10.19,0c0-2.95-1.37-4.75-3.54-4.75s-3.55,1.8-3.55,4.75,1.36,4.81,3.55,4.81S161.36,37.36,161.36,34.41Z"/><path class="cls-2" d="M166.42,27.36h3.1l5.91,9h0v-9h2.86V41.45h-2.86l-6.15-9.06h0v9.06h-2.86Z"/><path class="cls-2" d="M181.1,27.36h3.08V41.45H181.1Z"/><path class="cls-2" d="M187,27.36h5.64c2.59,0,5,.63,5,3.49a3.08,3.08,0,0,1-2.68,3.23v0c1.71.31,3.06,1.2,3.06,3.45,0,2.83-2.49,3.88-5.12,3.88H187Zm5.33,5.81c1.62,0,2.36-.61,2.36-1.7s-.66-1.71-2.32-1.71H190v3.41Zm.21,5.92c1.71,0,2.48-.68,2.48-1.88s-.9-1.85-2.61-1.85H190v3.73Z"/><path class="cls-2" d="M200.27,27.36h3.1V38.94h6.21v2.51h-9.31Z"/><path class="cls-2" d="M211.16,27.36h9.59V30h-6.49v3H219v2.45h-4.7v3.51h6.84v2.51h-9.94Z"/><path class="cls-2" d="M227.79,27.36h9.6V30H230.9v3h4.7v2.45h-4.7v3.51h6.83v2.51h-9.94Z"/><path class="cls-2" d="M239.58,27.36h3.1l5.9,9h0v-9h2.86V41.45h-2.86l-6.15-9.06h0v9.06h-2.85Z"/><path class="cls-2" d="M64.69,56.54l8.94-9.35L41.23,28.77A5.29,5.29,0,0,0,38.67,28a3,3,0,0,0-1.5.4Z"/><path class="cls-2" d="M36.48,85.82h0l.1.1L63.5,57.78,36,29.63a5.24,5.24,0,0,0-.55,2.49V82.61a4.58,4.58,0,0,0,1,3.21Z"/><path class="cls-2" d="M85.75,54.07l-10.58-6-9.28,9.7,8.91,9.13,11-6.22C88.94,58.85,88.94,55.88,85.75,54.07Z"/><path class="cls-2" d="M64.7,59,38.22,86.68a4.8,4.8,0,0,0,3-.72l32-18.2Z"/></svg>