<svg id="Layer_1" data-name="Layer 1" xmlns="http://www.w3.org/2000/svg" viewBox="0 0 324 107"><defs><style>.cls-1{fill:none;stroke:#424242;stroke-miterlimit:10;stroke-width:1.71px;}.cls-2{fill:#616161;}</style></defs><title>playstore1</title><g id="g12"><g id="g14"><g id="g38"><path id="path40" class="cls-1" d="M305.11,7.67H19.72A11.44,11.44,0,0,0,8.31,19.08v68.5A11.44,11.44,0,0,0,19.72,99H305.11a11.45,11.45,0,0,0,11.42-11.41V19.08A11.45,11.45,0,0,0,305.11,7.67"/></g><path id="path42" class="cls-2" d="M252.46,76.16h4.26V47.62h-4.26ZM290.83,57.9l-4.89,12.37h-.14L280.73,57.9h-4.59l7.6,17.29-4.33,9.63h4.44L295.57,57.9Zm-24.16,15c-1.4,0-3.34-.7-3.34-2.43,0-2.2,2.42-3,4.51-3a7.57,7.57,0,0,1,3.89,1,5.15,5.15,0,0,1-5.06,4.52m.51-15.64c-3.08,0-6.28,1.35-7.6,4.37l3.78,1.57a4,4,0,0,1,3.89-2.09c2.21,0,4.45,1.32,4.48,3.67v.3a9.41,9.41,0,0,0-4.44-1.1c-4.07,0-8.22,2.24-8.22,6.42,0,3.82,3.34,6.28,7.08,6.28a6,6,0,0,0,5.44-2.79h.14v2.2h4.12V65.17c0-5.07-3.78-7.89-8.67-7.89m-26.33,4.09h-6.06V51.59h6.06a4.89,4.89,0,1,1,0,9.78m-.11-13.75h-10.2V76.16h4.25V65.35h6c4.72,0,9.37-3.42,9.37-8.87s-4.65-8.86-9.37-8.86m-55.66,25.3a5.57,5.57,0,0,1-5.41-5.84,5.63,5.63,0,0,1,5.41-5.93c2.9,0,5.18,2.51,5.18,5.93s-2.28,5.84-5.18,5.84M190,59.5h-.15a6.71,6.71,0,0,0-5.11-2.17,9.72,9.72,0,0,0,0,19.42,6.59,6.59,0,0,0,5.11-2.21H190v1.4c0,3.72-2,5.7-5.19,5.7a5.36,5.36,0,0,1-4.89-3.46l-3.71,1.55a9.25,9.25,0,0,0,8.6,5.74c5,0,9.24-3,9.24-10.12V57.92H190Zm7,16.66h4.27V47.62H197Zm10.55-9.42a5.33,5.33,0,0,1,5.08-5.66,3.74,3.74,0,0,1,3.6,2.06Zm13.25-3.23c-.81-2.17-3.28-6.18-8.32-6.18s-9.15,3.93-9.15,9.71a9.5,9.5,0,0,0,9.63,9.71,9.65,9.65,0,0,0,8.09-4.3l-3.31-2.21a5.53,5.53,0,0,1-4.78,2.68A5,5,0,0,1,208.21,70l13-5.37Zm-103.45-3.2v4.12h9.86a8.65,8.65,0,0,1-2.24,5.18,10.09,10.09,0,0,1-7.62,3,11,11,0,0,1,0-21.92,10.5,10.5,0,0,1,7.43,2.94l2.91-2.91a14.4,14.4,0,0,0-10.34-4.15,15.08,15.08,0,1,0,0,30.16,13.78,13.78,0,0,0,10.52-4.23,13.63,13.63,0,0,0,3.57-9.64,13.1,13.1,0,0,0-.22-2.57Zm25.3,12.61A5.9,5.9,0,1,1,148.09,67a5.61,5.61,0,0,1-5.48,5.88m0-15.59A9.71,9.71,0,1,0,152.35,67a9.57,9.57,0,0,0-9.74-9.71m21.26,15.59A5.9,5.9,0,1,1,169.35,67a5.61,5.61,0,0,1-5.48,5.88m0-15.59A9.71,9.71,0,1,0,173.62,67a9.57,9.57,0,0,0-9.75-9.71"/></g></g><path class="cls-2" d="M102.07,22.7h4.32c4.3,0,7.54,1.83,7.54,7s-3.29,7.12-7.54,7.12h-4.32Zm4.53,11.58c3.07,0,4.23-1.37,4.23-4.57,0-3-1.18-4.42-4.27-4.42h-1.41v9Z"/><path class="cls-2" d="M116,22.7h3.09V36.79H116Z"/><path class="cls-2" d="M121.14,33.59l2.34-1.39a4.17,4.17,0,0,0,3.81,2.4c1.43,0,2.46-.53,2.46-1.62s-1-1.52-2.86-2c-2.51-.71-5.14-1.36-5.14-4.31,0-2.62,2.06-4.21,5.09-4.21a6.31,6.31,0,0,1,5.59,2.9L130.28,27a4.18,4.18,0,0,0-3.46-2c-1.32,0-2,.57-2,1.41,0,1.12,1,1.52,2.89,2,2.48.67,5.11,1.45,5.11,4.36,0,2.27-1.72,4.29-5.64,4.29A6.31,6.31,0,0,1,121.14,33.59Z"/><path class="cls-2" d="M134.81,22.7h5.12c3,0,5.75.8,5.75,4.51s-3,4.57-5.79,4.57h-2v5h-3.09Zm5.2,6.69c1.92,0,2.65-.75,2.65-2.1S142,25.23,140,25.23H137.9v4.16Z"/><path class="cls-2" d="M146.75,29.75c0-4.95,3.23-7.32,6.64-7.32S160,24.8,160,29.75s-3.24,7.31-6.63,7.31S146.75,34.7,146.75,29.75Zm10.18,0c0-2.95-1.37-4.74-3.54-4.74s-3.54,1.79-3.54,4.74,1.35,4.81,3.54,4.81S156.93,32.7,156.93,29.75Z"/><path class="cls-2" d="M162,22.7h3.1l5.9,9h0v-9h2.86V36.79H171l-6.15-9.06h0v9.06H162Z"/><path class="cls-2" d="M176.67,22.7h3.09V36.79h-3.09Z"/><path class="cls-2" d="M182.54,22.7h5.63c2.59,0,5,.63,5,3.49a3.08,3.08,0,0,1-2.69,3.23v0c1.72.31,3.07,1.2,3.07,3.45,0,2.84-2.5,3.88-5.12,3.88h-5.92Zm5.33,5.81c1.62,0,2.36-.61,2.36-1.7s-.67-1.71-2.32-1.71h-2.33v3.41Zm.21,5.92c1.71,0,2.47-.68,2.47-1.88s-.89-1.85-2.61-1.85h-2.36v3.73Z"/><path class="cls-2" d="M195.84,22.7H199V34.28h6.2v2.51h-9.31Z"/><path class="cls-2" d="M206.73,22.7h9.6v2.59h-6.5v3h4.71v2.46h-4.71v3.5h6.84v2.51h-9.94Z"/><path class="cls-2" d="M223.37,22.7H233v2.59h-6.5v3h4.71v2.46h-4.71v3.5h6.84v2.51h-9.94Z"/><path class="cls-2" d="M235.15,22.7h3.11l5.9,9h0v-9h2.85V36.79H244.2l-6.15-9.06h0v9.06h-2.86Z"/><path class="cls-2" d="M60.26,51.88l8.95-9.35L36.8,24.12a5.18,5.18,0,0,0-2.56-.77,2.93,2.93,0,0,0-1.49.39Z"/><path class="cls-2" d="M32.05,81.16h0l.1.1L59.08,53.12,31.56,25A5.27,5.27,0,0,0,31,27.46V78a4.57,4.57,0,0,0,1,3.2Z"/><path class="cls-2" d="M81.32,49.41l-10.58-6-9.28,9.71,8.92,9.12L81.32,56C84.51,54.19,84.51,51.22,81.32,49.41Z"/><path class="cls-2" d="M60.28,54.34,33.8,82a4.83,4.83,0,0,0,3-.72l32-18.21Z"/></svg>