<svg id="Layer_1" data-name="Layer 1" xmlns="http://www.w3.org/2000/svg" viewBox="0 0 284.11 284.11"><defs><style>.cls-1{fill:#fff;}.cls-2{fill:#d1dbf1;}.cls-3{fill:none;stroke:#0037b2;stroke-miterlimit:10;stroke-width:3.77px;}</style></defs><title>s1</title><circle class="cls-1" cx="142.06" cy="142.06" r="142.06"/><path class="cls-2" d="M193.65,231.28c-14.91.52-29.66-2.9-59.72-10.41-16.88-4.22-51.71-6.81-68.93-9.23C52.45,209.89,44.44,194.23,47.07,177l8-52.5,8.37-54.84C66.07,52.47,78.54,39.06,90.89,42c11.47,2.71,28,9,46.15,9.48,21.59.52,62.15,4.36,82.5,10.15C231.77,65.1,240.1,79,237.47,96.24L221.09,203.57C218.46,220.78,206.42,230.83,193.65,231.28Z"/><polygon class="cls-3" points="206.03 217.01 78.08 217.01 97.08 89.05 187.04 89.05 206.03 217.01"/><path class="cls-3" d="M120.09,108.77a6.66,6.66,0,1,1-6.66-6.66A6.66,6.66,0,0,1,120.09,108.77Z"/><path class="cls-3" d="M177.22,108.77a6.66,6.66,0,1,1-6.65-6.66A6.65,6.65,0,0,1,177.22,108.77Z"/><path class="cls-3" d="M113.56,107.42V82.08a28.51,28.51,0,0,1,28.5-28.51h0a28.51,28.51,0,0,1,28.51,28.51v25.34"/></svg>