<svg id="Layer_1" data-name="Layer 1" xmlns="http://www.w3.org/2000/svg" viewBox="0 0 284.11 284.11"><defs><style>.cls-1{fill:#fff;}.cls-2{fill:#d1dbf1;}.cls-3,.cls-5{fill:none;stroke:#0037b2;stroke-width:3.42px;}.cls-3{stroke-miterlimit:10;}.cls-4{fill:#0037b2;}.cls-5{stroke-linecap:round;stroke-linejoin:round;}</style></defs><title>s2</title><circle class="cls-1" cx="142.06" cy="142.06" r="142.06"/><path class="cls-2" d="M191,239c-14.9.39-29.68-3-59.8-10.36-16.92-4.15-51.78-6.88-69-9.3-12.57-1.77-20.69-16.76-18.19-33.17l7.64-50,8-52.26C62.06,67.43,74.43,54.73,86.8,57.6,98.3,60.28,114.86,66.43,133,67c21.61.66,62.2,4.61,82.59,10.28,12.27,3.42,20.69,16.77,18.19,33.17L218.2,212.72C215.7,229.12,203.72,238.61,191,239Z"/><path class="cls-3" d="M159.13,104.51l77.4-14.72a5.39,5.39,0,0,1,6.3,4.28L256,163.19a5.38,5.38,0,0,1-4.29,6.29l-92.49,17.59"/><path class="cls-4" d="M199.58,111.47a1.16,1.16,0,0,1-.21.37.59.59,0,0,1-.34.18.92.92,0,0,1-.46,0l-.57-.17a4.81,4.81,0,0,0-.72-.15,2.7,2.7,0,0,0-.88.06,1.86,1.86,0,0,0-1.15.6,1.26,1.26,0,0,0-.2,1,.89.89,0,0,0,.38.58,1.82,1.82,0,0,0,.72.3,6.39,6.39,0,0,0,1,.15l1.1.11c.38.06.76.13,1.13.22a3.79,3.79,0,0,1,1,.45,3.08,3.08,0,0,1,.83.82,3.32,3.32,0,0,1,.53,1.29,4.6,4.6,0,0,1,0,1.69,3.91,3.91,0,0,1-1.83,2.7,5.33,5.33,0,0,1-1.84.73,7,7,0,0,1-1.23.13,8.66,8.66,0,0,1-1.25-.09,7.55,7.55,0,0,1-1.18-.3,5,5,0,0,1-1-.49l.58-1.55a.72.72,0,0,1,.21-.31.88.88,0,0,1,.35-.17,1,1,0,0,1,.56.06l.67.23a4.69,4.69,0,0,0,.84.21,3,3,0,0,0,1.06-.05,2.07,2.07,0,0,0,1.16-.61,1.38,1.38,0,0,0,.2-1.21,1.06,1.06,0,0,0-.39-.66,2,2,0,0,0-.73-.33,6.56,6.56,0,0,0-1-.13L195.9,117a7.11,7.11,0,0,1-1.12-.2,3.08,3.08,0,0,1-1-.46,2.92,2.92,0,0,1-.84-.87,4,4,0,0,1-.56-1.43,3.49,3.49,0,0,1,0-1.44,3.53,3.53,0,0,1,.58-1.37,4.26,4.26,0,0,1,1.18-1.13,5.1,5.1,0,0,1,1.78-.7,7.42,7.42,0,0,1,1.14-.15,5.68,5.68,0,0,1,1.1,0,5.5,5.5,0,0,1,1,.23,4.15,4.15,0,0,1,.88.4Z"/><path class="cls-4" d="M208.78,117.6a2.71,2.71,0,0,0,1-.41,2.22,2.22,0,0,0,.67-.73,2.5,2.5,0,0,0,.3-1,4.08,4.08,0,0,0-.08-1.23l-1.57-7.45,2.92-.61,1.57,7.45a6.09,6.09,0,0,1,.07,2.2,5,5,0,0,1-.73,1.9,5.05,5.05,0,0,1-1.47,1.44,6.41,6.41,0,0,1-2.17.87,6.49,6.49,0,0,1-2.35.08A4.78,4.78,0,0,1,203.6,118a6.16,6.16,0,0,1-.82-2l-1.56-7.45,2.92-.61,1.56,7.44a3.88,3.88,0,0,0,.42,1.15,2.62,2.62,0,0,0,.67.79,2.27,2.27,0,0,0,.91.4A2.83,2.83,0,0,0,208.78,117.6Z"/><path class="cls-4" d="M216.58,118.37l-2.65-12.58,4.63-1a9.25,9.25,0,0,1,2.27-.22,4.36,4.36,0,0,1,1.64.37,2.67,2.67,0,0,1,1.07.89,3.67,3.67,0,0,1,.55,1.36,3,3,0,0,1,.06.84,2.58,2.58,0,0,1-.23.81,2.72,2.72,0,0,1-.53.77,4.28,4.28,0,0,1-.88.69,3.54,3.54,0,0,1,2.05.6,2.59,2.59,0,0,1,1,1.61,3.73,3.73,0,0,1,0,1.56,3.45,3.45,0,0,1-.65,1.4,4.28,4.28,0,0,1-1.32,1.11,6.14,6.14,0,0,1-2,.71Zm1.38-7.9,1.52-.32a5.22,5.22,0,0,0,.86-.25,1.92,1.92,0,0,0,.61-.38,1.2,1.2,0,0,0,.32-.57,1.94,1.94,0,0,0,0-.79,2,2,0,0,0-.27-.72,1.17,1.17,0,0,0-.45-.41,1.55,1.55,0,0,0-.64-.13,4.22,4.22,0,0,0-.87.1l-1.71.36Zm.41,2,.66,3.14,2.06-.44a2.59,2.59,0,0,0,.91-.34,1.58,1.58,0,0,0,.5-.5,1.38,1.38,0,0,0,.17-.59,2.07,2.07,0,0,0,0-.61,1.78,1.78,0,0,0-.22-.6,1,1,0,0,0-.41-.41,1.62,1.62,0,0,0-.64-.17,3.32,3.32,0,0,0-.94.09Z"/><path class="cls-4" d="M233.36,101.7l.48,2.25L228.67,105l.62,2.94,4-.83.46,2.16-4,.83.63,3,5.17-1.09.47,2.25-8.1,1.7-2.65-12.58Z"/><path class="cls-5" d="M75.59,172.63a30.14,30.14,0,1,1-.4-50"/><path class="cls-4" d="M56.24,164.43a15.73,15.73,0,0,1-4.6-1.31A12.74,12.74,0,0,1,48,160.66l1.57-2.38a1.75,1.75,0,0,1,.56-.52,1.45,1.45,0,0,1,.72-.2,1.83,1.83,0,0,1,1,.31l1.2.76a16.28,16.28,0,0,0,1.54.87,7.31,7.31,0,0,0,2,.63l.71-9.39c-1-.27-2-.59-3-1a10.26,10.26,0,0,1-2.63-1.48A7.08,7.08,0,0,1,49.81,146a8.64,8.64,0,0,1-.13-6.69,8.22,8.22,0,0,1,1.84-2.74,9.69,9.69,0,0,1,3-2,10.06,10.06,0,0,1,4.08-.81l.21-2.67a1.44,1.44,0,0,1,.41-.91,1.28,1.28,0,0,1,1-.41l1.91,0-.33,4.12a11.7,11.7,0,0,1,3.85,1.23,13.7,13.7,0,0,1,2.82,2L67.18,139a2.79,2.79,0,0,1-.58.63,1.13,1.13,0,0,1-.71.22,1.88,1.88,0,0,1-.75-.19q-.44-.19-1-.48c-.37-.18-.78-.37-1.23-.56a8.15,8.15,0,0,0-1.49-.47l-.66,8.68c1,.3,2,.63,3,1a10.6,10.6,0,0,1,2.67,1.41,7,7,0,0,1,1.94,2.17,6.71,6.71,0,0,1,.76,3.28,10.35,10.35,0,0,1-.62,3.66,9.11,9.11,0,0,1-1.87,3,9.74,9.74,0,0,1-3,2.15,12.28,12.28,0,0,1-4.16,1l-.23,3.09a1.43,1.43,0,0,1-.41.89,1.33,1.33,0,0,1-1,.42H55.9ZM54,141.87a3.27,3.27,0,0,0,.28,1.4,3.36,3.36,0,0,0,.77,1.07,5.44,5.44,0,0,0,1.17.83,11,11,0,0,0,1.47.65l.59-7.76a7.24,7.24,0,0,0-2,.51,4.3,4.3,0,0,0-1.33.86,3,3,0,0,0-.75,1.12A3.47,3.47,0,0,0,54,141.87Zm10.28,13.61a3.2,3.2,0,0,0-.29-1.39,3.49,3.49,0,0,0-.8-1.05,5.31,5.31,0,0,0-1.22-.78,12.5,12.5,0,0,0-1.51-.6l-.64,8.51a5.48,5.48,0,0,0,3.35-1.53A4.41,4.41,0,0,0,64.23,155.48Z"/><path class="cls-5" d="M213.57,69a19.89,19.89,0,1,1-20-19.74A19.89,19.89,0,0,1,213.57,69Z"/><path class="cls-4" d="M192.19,80.12a10.23,10.23,0,0,1-3-.85,8.69,8.69,0,0,1-2.43-1.63l1-1.57a1.07,1.07,0,0,1,.36-.34.92.92,0,0,1,.48-.14,1.27,1.27,0,0,1,.65.21l.79.5c.3.19.64.38,1,.57a4.87,4.87,0,0,0,1.35.42l.47-6.2c-.65-.18-1.3-.39-1.94-.63a6.58,6.58,0,0,1-1.74-1,4.67,4.67,0,0,1-1.25-1.55,5.28,5.28,0,0,1-.49-2.35,5.43,5.43,0,0,1,1.62-3.87,6.49,6.49,0,0,1,2-1.32,6.69,6.69,0,0,1,2.69-.54l.14-1.76a1,1,0,0,1,.27-.6.85.85,0,0,1,.65-.27H196l-.22,2.72a7.66,7.66,0,0,1,2.54.81,9.36,9.36,0,0,1,1.86,1.32l-.82,1.27a1.7,1.7,0,0,1-.38.41.82.82,0,0,1-.47.15,1.33,1.33,0,0,1-.49-.13l-.65-.31c-.25-.13-.52-.25-.82-.38a6,6,0,0,0-1-.31l-.44,5.73q1,.3,2,.66a6.87,6.87,0,0,1,1.76.93,4.63,4.63,0,0,1,1.28,1.43,4.48,4.48,0,0,1,.5,2.16,6.6,6.6,0,0,1-.41,2.41,5.79,5.79,0,0,1-1.24,2,6.16,6.16,0,0,1-2,1.41,8.17,8.17,0,0,1-2.74.68l-.15,2a1,1,0,0,1-.27.59.85.85,0,0,1-.65.27H192Zm-1.52-14.88a2.19,2.19,0,0,0,.19.92,2.21,2.21,0,0,0,.51.71,3.44,3.44,0,0,0,.77.55,6.16,6.16,0,0,0,1,.42l.39-5.12a5.21,5.21,0,0,0-1.3.34,2.85,2.85,0,0,0-.88.57,2.11,2.11,0,0,0-.5.74A2.49,2.49,0,0,0,190.67,65.24Zm6.79,9a2.11,2.11,0,0,0-.73-1.61,3.49,3.49,0,0,0-.79-.52,10.43,10.43,0,0,0-1-.39l-.43,5.61a3.57,3.57,0,0,0,2.21-1A2.88,2.88,0,0,0,197.46,74.22Z"/><path class="cls-3" d="M145.35,57.58l-55.49,0c-7.59,0-13.75,5.56-13.74,12.4l.08,134.36c0,6.84,6.16,12.39,13.76,12.39l55.49,0c7.59,0,13.74-5.55,13.74-12.4L159.11,70C159.11,63.13,153,57.58,145.35,57.58Z"/><path class="cls-4" d="M125,70.62a1.47,1.47,0,0,1-1.55,1.4H111.53a1.49,1.49,0,0,1-1.56-1.4h0a1.48,1.48,0,0,1,1.56-1.4h11.91a1.48,1.48,0,0,1,1.55,1.4Z"/><path class="cls-4" d="M119.22,64.2a1.69,1.69,0,1,1-1.68-1.51A1.6,1.6,0,0,1,119.22,64.2Z"/><path class="cls-4" d="M107.32,70.63a1.68,1.68,0,1,1-1.68-1.51A1.59,1.59,0,0,1,107.32,70.63Z"/><path class="cls-4" d="M124.88,204.42c0,3.2-2.88,5.8-6.43,5.8s-6.44-2.59-6.44-5.8,2.88-5.8,6.43-5.8S124.88,201.22,124.88,204.42Z"/><rect class="cls-3" x="88.71" y="79.77" width="57.64" height="96.43"/></svg>