<svg id="Layer_1" data-name="Layer 1" xmlns="http://www.w3.org/2000/svg" viewBox="0 0 284.11 284.11"><defs><style>.cls-1{fill:#fff;}.cls-2{fill:#d1dbf1;}.cls-3{fill:none;stroke:#0037b2;stroke-miterlimit:10;stroke-width:3.42px;}.cls-4{fill:#0037b2;}</style></defs><title>s3</title><circle class="cls-1" cx="142.06" cy="142.06" r="142.06"/><path class="cls-2" d="M194.56,233c-14.91.39-29.69-3-59.81-10.36-16.91-4.15-51.77-6.88-69-9.3-12.57-1.77-20.69-16.76-18.19-33.17l7.64-50,8-52.26C65.66,61.43,78,48.73,90.41,51.6c11.5,2.68,28.06,8.83,46.23,9.38,21.6.66,62.2,4.61,82.59,10.28,12.26,3.42,20.69,16.77,18.19,33.17L221.81,206.72C219.3,223.12,207.33,232.61,194.56,233Z"/><polyline class="cls-3" points="131.97 214.72 46.41 214.72 46.41 55.82 156.03 55.82 156.03 73.94"/><rect class="cls-4" x="60.81" y="85.96" width="80.83" height="5.42" transform="translate(-0.16 0.19) rotate(-0.11)"/><polygon class="cls-4" points="131.15 107.5 60.81 107.65 60.8 102.22 135.15 102.08 131.15 107.5"/><polygon class="cls-4" points="119.15 123.69 60.81 123.84 60.8 118.41 123.15 118.27 119.15 123.69"/><rect class="cls-3" x="117.01" y="66.11" width="109.62" height="158.9" transform="translate(116.08 -72.62) rotate(35.4)"/><path class="cls-4" d="M163,185l-19.35-13.67a1.84,1.84,0,1,1,2.13-3L165.16,182a1.84,1.84,0,1,1-2.13,3Z"/><path class="cls-4" d="M159.86,189.53l-19.35-13.66a1.85,1.85,0,1,1,2.12-3L162,186.52a1.84,1.84,0,1,1-2.13,3Z"/><path class="cls-4" d="M152.54,191.1l-11.06-7.81a1.84,1.84,0,1,1,2.13-3l11.06,7.81a1.84,1.84,0,1,1-2.13,3Z"/><path class="cls-4" d="M214.5,130.73c-1-8.47-5.4-15.72-12.81-21s-15.74-7-24-5.07a31.93,31.93,0,0,0-19.13,13.06c-6.27,8.88-6.38,16.8-6.49,24.46-.1,7.38-.11,14.23-5.65,22.07a1.83,1.83,0,0,0-.3,1.38,1.93,1.93,0,0,0,.77,1.21l19.36,13.67a1.86,1.86,0,0,0,2.6-.42c5.53-7.84,12-10.15,18.9-12.71,7.19-2.67,14.61-5.42,20.88-14.3A32,32,0,0,0,214.5,130.73Zm-28.15,33.21c-6.72,2.49-13.57,4.94-19.52,12.54l-16.35-11.55c5.17-8.15,5.19-15.42,5.29-22.59.1-7.43.2-14.45,5.82-22.41,8.08-11.43,23.55-17.33,38-7.15s14,26.74,6,38.17C199.9,158.91,193.32,161.35,186.35,163.94Z"/></svg>