<svg id="Layer_1" data-name="Layer 1" xmlns="http://www.w3.org/2000/svg" viewBox="0 0 284.11 284.11"><defs><style>.cls-1{fill:#fff;}.cls-2{fill:#d1dbf1;}.cls-3{fill:none;stroke:#0037b2;stroke-miterlimit:10;stroke-width:3.42px;}.cls-4{fill:#0037b2;}</style></defs><title>s4</title><circle class="cls-1" cx="142.06" cy="142.06" r="142.06"/><path class="cls-2" d="M194.16,232c-14.9.39-29.68-3-59.8-10.36-16.91-4.15-51.77-6.88-69-9.3-12.57-1.77-20.69-16.76-18.19-33.17l7.63-50,8-52.26C65.27,60.43,77.64,47.73,90,50.6c11.49,2.68,28.06,8.83,46.23,9.38,21.6.66,62.2,4.61,82.59,10.28C231.1,73.68,239.53,87,237,103.43L221.41,205.72C218.91,222.12,206.93,231.61,194.16,232Z"/><path class="cls-3" d="M140.92,199.23a46.2,46.2,0,1,1-52.57-52.69"/><path class="cls-4" d="M91.73,217.72a24.11,24.11,0,0,1-7.06-2A20,20,0,0,1,79,212l2.41-3.65a2.42,2.42,0,0,1,.85-.8,2.18,2.18,0,0,1,1.1-.31,3,3,0,0,1,1.51.48c.54.33,1.15.72,1.84,1.16a25.93,25.93,0,0,0,2.35,1.33,11.34,11.34,0,0,0,3.12,1l1.1-14.38c-1.52-.42-3-.91-4.52-1.48a14.94,14.94,0,0,1-4-2.27,10.42,10.42,0,0,1-2.9-3.6,13.18,13.18,0,0,1-.2-10.25A12.56,12.56,0,0,1,84.49,175a15,15,0,0,1,4.56-3.06,15.3,15.3,0,0,1,6.24-1.24l.32-4.09a2.28,2.28,0,0,1,.63-1.4,2,2,0,0,1,1.51-.63l2.92,0-.5,6.31a17.81,17.81,0,0,1,5.89,1.87,21.83,21.83,0,0,1,4.32,3.08l-1.9,2.94a4.06,4.06,0,0,1-.89,1,1.93,1.93,0,0,1-1.09.33,2.84,2.84,0,0,1-1.14-.3c-.44-.2-.94-.44-1.51-.73s-1.2-.57-1.89-.86a12,12,0,0,0-2.28-.72l-1,13.29q2.32.69,4.59,1.52a16.79,16.79,0,0,1,4.09,2.17,10.64,10.64,0,0,1,3,3.33,10.19,10.19,0,0,1,1.17,5,15.75,15.75,0,0,1-1,5.61,13.84,13.84,0,0,1-2.87,4.64,14.66,14.66,0,0,1-4.67,3.29,18.8,18.8,0,0,1-6.37,1.56l-.35,4.72a2.28,2.28,0,0,1-.63,1.37,2,2,0,0,1-1.5.64l-2.92,0Zm-3.52-34.56A4.94,4.94,0,0,0,89.83,187a8.07,8.07,0,0,0,1.79,1.27,16.58,16.58,0,0,0,2.25,1l.9-11.88a11.45,11.45,0,0,0-3,.78,6.83,6.83,0,0,0-2,1.31,4.84,4.84,0,0,0-1.16,1.73A5.46,5.46,0,0,0,88.21,183.16ZM104,204a5.06,5.06,0,0,0-.45-2.13,5.28,5.28,0,0,0-1.23-1.61,8.26,8.26,0,0,0-1.86-1.2,18.84,18.84,0,0,0-2.31-.91l-1,13a8.38,8.38,0,0,0,5.13-2.34A6.69,6.69,0,0,0,104,204Z"/><path class="cls-3" d="M234.42,81.52a23.1,23.1,0,1,1-23.29-22.91A23.1,23.1,0,0,1,234.42,81.52Z"/><path class="cls-4" d="M209.59,94.48a12,12,0,0,1-3.53-1,9.81,9.81,0,0,1-2.82-1.89l1.21-1.82a1.24,1.24,0,0,1,.42-.4,1.11,1.11,0,0,1,.55-.15,1.4,1.4,0,0,1,.76.24c.27.16.57.36.92.58a12.22,12.22,0,0,0,1.17.66,5.84,5.84,0,0,0,1.56.49l.55-7.19c-.76-.21-1.51-.46-2.25-.74a7.54,7.54,0,0,1-2-1.14,5.27,5.27,0,0,1-1.45-1.8,6.07,6.07,0,0,1-.57-2.73,6.24,6.24,0,0,1,.47-2.39,6.49,6.49,0,0,1,1.4-2.1,7.59,7.59,0,0,1,2.29-1.53,7.78,7.78,0,0,1,3.12-.62l.16-2a1.12,1.12,0,0,1,.31-.7,1,1,0,0,1,.76-.32h1.46L213.81,71a8.91,8.91,0,0,1,2.94.93,10.83,10.83,0,0,1,2.16,1.54L218,75a1.9,1.9,0,0,1-.44.48.9.9,0,0,1-.55.17,1.42,1.42,0,0,1-.57-.15l-.75-.36c-.29-.14-.6-.29-1-.43a5.87,5.87,0,0,0-1.14-.36L213.05,81c.78.23,1.54.49,2.3.76a8.12,8.12,0,0,1,2,1.09,5.24,5.24,0,0,1,1.48,1.66,5.12,5.12,0,0,1,.59,2.51,7.85,7.85,0,0,1-.48,2.8,6.78,6.78,0,0,1-1.43,2.32,7.31,7.31,0,0,1-2.34,1.65,9.58,9.58,0,0,1-3.18.78l-.18,2.36a1.14,1.14,0,0,1-.31.68,1,1,0,0,1-.75.32h-1.46ZM207.83,77.2a2.59,2.59,0,0,0,.21,1.07,2.67,2.67,0,0,0,.6.82,4.31,4.31,0,0,0,.89.64,8.36,8.36,0,0,0,1.13.49l.45-5.94a5.82,5.82,0,0,0-1.51.39,3.46,3.46,0,0,0-1,.66,2.52,2.52,0,0,0-.58.86A2.62,2.62,0,0,0,207.83,77.2Zm7.88,10.43a2.55,2.55,0,0,0-.23-1.07,2.47,2.47,0,0,0-.61-.8,4,4,0,0,0-.93-.6,9.67,9.67,0,0,0-1.16-.46l-.49,6.52a4.18,4.18,0,0,0,2.56-1.17A3.36,3.36,0,0,0,215.71,87.63Z"/><path class="cls-3" d="M81.74,65.83,64.55,83.13a31.89,31.89,0,0,1-1.74,38l98.07,97.47a31.84,31.84,0,0,1,41.35-.29l16.52-16.61a31.85,31.85,0,0,1,0-41.37l-98-97.41A31.85,31.85,0,0,1,81.74,65.83Z"/><path class="cls-3" d="M64.55,83.13l-17.86,18a2.87,2.87,0,0,0,0,4.06l16.11,16A31.89,31.89,0,0,0,64.55,83.13Z"/><path class="cls-3" d="M100.56,46.9,81.74,65.83a31.85,31.85,0,0,0,39-2.89L104.61,46.88A2.87,2.87,0,0,0,100.56,46.9Z"/><path class="cls-3" d="M160.88,218.62l18.63,18.52a2.87,2.87,0,0,0,4.05,0l18.67-18.8A31.84,31.84,0,0,0,160.88,218.62Z"/><path class="cls-3" d="M218.75,201.72l18.67-18.8a2.85,2.85,0,0,0,0-4l-18.63-18.52A31.85,31.85,0,0,0,218.75,201.72Z"/><path class="cls-3" d="M125.23,123.61a24.71,24.71,0,1,1,.1,35A24.71,24.71,0,0,1,125.23,123.61Z"/></svg>